<svg width="466" height="43" viewBox="0 0 466 43" fill="none" xmlns="http://www.w3.org/2000/svg">
<path d="M29.7744 31.4189V1.50195C31.3141 1.55566 32.7554 1.65413 34.0981 1.79736C35.4588 1.92269 36.6584 2.05697 37.6968 2.2002C38.8963 2.37923 40.0153 2.55827 41.0537 2.7373V9.55859C39.6214 9.12891 37.9743 8.75293 36.1123 8.43066V35.501C37.0791 35.3577 37.9653 35.1877 38.771 34.9907C39.5946 34.7938 40.3555 34.5879 41.0537 34.373V40.7109C39.7646 40.9258 38.592 41.1048 37.5356 41.248C36.4793 41.3913 35.4946 41.5076 34.5815 41.5972C33.6864 41.6867 32.8449 41.7583 32.0571 41.812C31.2694 41.8657 30.5085 41.9105 29.7744 41.9463L11.7812 12.083V41.9463C11.0472 41.9105 10.2863 41.8657 9.49854 41.812C8.71077 41.7583 7.8693 41.6867 6.97412 41.5972C6.07894 41.5076 5.10319 41.3913 4.04688 41.248C2.99056 41.1048 1.82682 40.9258 0.555664 40.7109V33.8896C1.88053 34.3193 3.52767 34.6953 5.49707 35.0176V7.89355C4.54818 8.05469 3.66195 8.23372 2.83838 8.43066C2.01481 8.6276 1.25391 8.82454 0.555664 9.02148V2.7373C1.55827 2.55827 2.65934 2.37923 3.85889 2.2002C4.87939 2.05697 6.06999 1.92269 7.43066 1.79736C8.79134 1.65413 10.2415 1.55566 11.7812 1.50195L29.7744 31.4189ZM72.8398 11.3848C73.7529 11.3848 74.854 11.4295 76.1431 11.519C77.4321 11.6086 78.766 11.7697 80.1445 12.0024C81.541 12.2173 82.9196 12.5306 84.2803 12.9424C85.641 13.3363 86.8584 13.8465 87.9326 14.4731C89.0247 15.0998 89.902 15.8607 90.5645 16.7559C91.2448 17.6331 91.585 18.6715 91.585 19.8711V28.9482H60.8086V35.8232C62.9749 36.1276 65.0607 36.3424 67.0659 36.4678C69.0711 36.5752 70.9958 36.6289 72.8398 36.6289C75.6507 36.6289 78.193 36.5215 80.4668 36.3066C82.7585 36.0918 84.7368 35.8501 86.4019 35.5815C88.3175 35.2772 90.0452 34.9281 91.585 34.5342V40.4961C88.1833 41.0332 84.8979 41.4181 81.729 41.6509C78.578 41.8836 75.6149 42 72.8398 42C70.0469 42 67.5135 41.9284 65.2397 41.7852C62.966 41.624 61.0145 41.445 59.3853 41.248C57.4875 41.0332 55.7777 40.7826 54.2559 40.4961V19.8711C54.2559 18.6715 54.5513 17.6331 55.1421 16.7559C55.7329 15.8607 56.5207 15.0998 57.5054 14.4731C58.4901 13.8465 59.618 13.3363 60.8892 12.9424C62.1782 12.5306 63.512 12.2173 64.8906 12.0024C66.2692 11.7697 67.6388 11.6086 68.9995 11.519C70.3781 11.4295 71.6582 11.3848 72.8398 11.3848ZM60.8086 24.6514H84.9248V21.5361C84.9248 20.8021 84.7458 20.1755 84.3877 19.6562C84.0296 19.1191 83.5462 18.6715 82.9375 18.3135C82.3467 17.9554 81.6484 17.6689 80.8428 17.4541C80.055 17.2214 79.2314 17.0513 78.3721 16.9438C77.5127 16.8185 76.6444 16.738 75.7671 16.7021C74.9077 16.6663 74.0931 16.6484 73.3232 16.6484C72.5176 16.6484 71.6493 16.6663 70.7183 16.7021C69.8052 16.738 68.8831 16.8185 67.9521 16.9438C67.0212 17.0692 66.126 17.2482 65.2666 17.481C64.4072 17.6958 63.6463 17.9912 62.9839 18.3672C62.3215 18.7253 61.7933 19.1729 61.3994 19.71C61.0055 20.2292 60.8086 20.8558 60.8086 21.5898V24.6514ZM120.202 21.1602L126.164 11.3848H128.205C129.816 11.4743 131.249 11.5907 132.502 11.7339C133.755 11.8771 134.82 12.0203 135.698 12.1636C136.718 12.3247 137.622 12.4948 138.41 12.6738V18.9043C137.945 18.6536 137.336 18.4299 136.584 18.2329C135.832 18.0181 135.026 17.848 134.167 17.7227C133.326 17.5794 132.475 17.472 131.616 17.4004C130.756 17.3288 129.978 17.293 129.279 17.293L123.532 26.6924L129.279 36.0918C129.978 36.0918 130.756 36.056 131.616 35.9844C132.475 35.9128 133.326 35.8143 134.167 35.689C135.026 35.5457 135.832 35.3757 136.584 35.1787C137.336 34.9639 137.945 34.7311 138.41 34.4805V40.7109C137.622 40.89 136.718 41.0601 135.698 41.2212C134.82 41.3644 133.755 41.5076 132.502 41.6509C131.249 41.7941 129.816 41.9105 128.205 42H126.164L120.202 32.2783L114.294 42H112.253C110.642 41.9105 109.209 41.7941 107.956 41.6509C106.703 41.5076 105.638 41.3644 104.76 41.2212C103.74 41.0601 102.836 40.89 102.048 40.7109V34.4805C102.495 34.7311 103.095 34.9639 103.847 35.1787C104.599 35.3757 105.396 35.5457 106.237 35.689C107.097 35.8143 107.956 35.9128 108.815 35.9844C109.693 36.056 110.48 36.0918 111.179 36.0918L116.872 26.6924L111.179 17.293C110.48 17.293 109.693 17.3288 108.815 17.4004C107.956 17.472 107.097 17.5794 106.237 17.7227C105.396 17.848 104.599 18.0181 103.847 18.2329C103.095 18.4299 102.495 18.6536 102.048 18.9043V12.6738C102.836 12.4948 103.74 12.3247 104.76 12.1636C105.638 12.0203 106.703 11.8771 107.956 11.7339C109.209 11.5907 110.642 11.4743 112.253 11.3848H114.294L120.202 21.1602ZM159.078 11.0088H165.899V15.5205H159.078V42H152.687V15.5205H147.638V11.0088H152.687V1.66309H159.078V11.0088ZM194.517 1.07227C197.22 1.07227 199.771 1.31396 202.17 1.79736C204.569 2.28076 206.664 2.95215 208.455 3.81152C210.263 4.6709 211.695 5.70036 212.751 6.8999C213.808 8.09945 214.336 9.41536 214.336 10.8477V15.1982H207.354V12.8887C207.354 12.1188 207.058 11.3848 206.467 10.6865C205.876 9.98828 205.026 9.37061 203.916 8.8335C202.824 8.29639 201.481 7.87565 199.888 7.57129C198.312 7.24902 196.522 7.08789 194.517 7.08789C192.583 7.08789 190.828 7.24007 189.253 7.54443C187.677 7.8488 186.326 8.26058 185.198 8.77979C184.07 9.29899 183.201 9.91667 182.593 10.6328C181.984 11.3311 181.68 12.083 181.68 12.8887V30.291C181.68 31.0788 181.984 31.8307 182.593 32.5469C183.201 33.2451 184.07 33.8628 185.198 34.3999C186.326 34.9191 187.677 35.3309 189.253 35.6353C190.828 35.9396 192.583 36.0918 194.517 36.0918C196.522 36.0918 198.312 35.9396 199.888 35.6353C201.481 35.313 202.824 34.8833 203.916 34.3462C205.026 33.8091 205.876 33.1914 206.467 32.4932C207.058 31.7949 207.354 31.0609 207.354 30.291V26.4238C205.688 26.4238 204.194 26.4686 202.869 26.5581C201.562 26.6476 200.443 26.7371 199.512 26.8267C198.42 26.952 197.453 27.0863 196.611 27.2295L197.31 20.7305C200.049 20.5156 202.627 20.4082 205.044 20.4082C208.285 20.4082 211.382 20.5693 214.336 20.8916V32.332C214.336 33.7643 213.808 35.0802 212.751 36.2798C211.695 37.4614 210.263 38.4819 208.455 39.3413C206.664 40.2007 204.569 40.8721 202.17 41.3555C199.771 41.821 197.22 42.0537 194.517 42.0537C191.813 42.0537 189.262 41.821 186.863 41.3555C184.464 40.8721 182.36 40.2007 180.552 39.3413C178.761 38.4819 177.338 37.4614 176.282 36.2798C175.225 35.0802 174.697 33.7643 174.697 32.332V10.8477C174.697 9.41536 175.225 8.09945 176.282 6.8999C177.338 5.70036 178.761 4.6709 180.552 3.81152C182.36 2.95215 184.464 2.28076 186.863 1.79736C189.262 1.31396 191.813 1.07227 194.517 1.07227ZM244.726 11.3848C245.639 11.3848 246.74 11.4295 248.029 11.519C249.318 11.6086 250.652 11.7697 252.03 12.0024C253.427 12.2173 254.805 12.5306 256.166 12.9424C257.527 13.3363 258.744 13.8465 259.818 14.4731C260.91 15.0998 261.788 15.8607 262.45 16.7559C263.131 17.6331 263.471 18.6715 263.471 19.8711V28.9482H232.694V35.8232C234.861 36.1276 236.946 36.3424 238.952 36.4678C240.957 36.5752 242.882 36.6289 244.726 36.6289C247.536 36.6289 250.079 36.5215 252.353 36.3066C254.644 36.0918 256.623 35.8501 258.288 35.5815C260.203 35.2772 261.931 34.9281 263.471 34.5342V40.4961C260.069 41.0332 256.784 41.4181 253.615 41.6509C250.464 41.8836 247.501 42 244.726 42C241.933 42 239.399 41.9284 237.125 41.7852C234.852 41.624 232.9 41.445 231.271 41.248C229.373 41.0332 227.663 40.7826 226.142 40.4961V19.8711C226.142 18.6715 226.437 17.6331 227.028 16.7559C227.619 15.8607 228.406 15.0998 229.391 14.4731C230.376 13.8465 231.504 13.3363 232.775 12.9424C234.064 12.5306 235.398 12.2173 236.776 12.0024C238.155 11.7697 239.525 11.6086 240.885 11.519C242.264 11.4295 243.544 11.3848 244.726 11.3848ZM232.694 24.6514H256.811V21.5361C256.811 20.8021 256.632 20.1755 256.273 19.6562C255.915 19.1191 255.432 18.6715 254.823 18.3135C254.232 17.9554 253.534 17.6689 252.729 17.4541C251.941 17.2214 251.117 17.0513 250.258 16.9438C249.398 16.8185 248.53 16.738 247.653 16.7021C246.793 16.6663 245.979 16.6484 245.209 16.6484C244.403 16.6484 243.535 16.6663 242.604 16.7021C241.691 16.738 240.769 16.8185 239.838 16.9438C238.907 17.0692 238.012 17.2482 237.152 17.481C236.293 17.6958 235.532 17.9912 234.87 18.3672C234.207 18.7253 233.679 19.1729 233.285 19.71C232.891 20.2292 232.694 20.8558 232.694 21.5898V24.6514ZM276.727 19.8174C276.655 19.2445 276.485 18.7611 276.216 18.3672C275.966 17.9733 275.688 17.651 275.384 17.4004C275.044 17.096 274.668 16.8454 274.256 16.6484L277.264 11.3848C277.926 11.6175 278.589 11.9308 279.251 12.3247C279.806 12.6649 280.388 13.1035 280.997 13.6406C281.623 14.1598 282.169 14.8044 282.635 15.5742C283.53 15.0013 284.443 14.4642 285.374 13.9629C286.323 13.4437 287.308 12.9961 288.328 12.6201C289.367 12.2441 290.45 11.9487 291.578 11.7339C292.723 11.5011 293.95 11.3848 295.257 11.3848C298.014 11.3848 300.377 11.6175 302.347 12.083C304.334 12.5306 305.954 13.2109 307.208 14.124C308.479 15.0192 309.41 16.1382 310 17.481C310.591 18.8237 310.887 20.3903 310.887 22.1807V42H303.851V23.8457C303.851 22.8431 303.716 21.9837 303.448 21.2676C303.179 20.5335 302.812 19.9159 302.347 19.4146C301.899 18.8953 301.371 18.4746 300.762 18.1523C300.153 17.8301 299.518 17.5884 298.855 17.4272C298.211 17.2482 297.549 17.1318 296.868 17.0781C296.188 17.0065 295.543 16.9707 294.935 16.9707C293.789 16.9707 292.697 17.0513 291.658 17.2124C290.62 17.3735 289.635 17.5973 288.704 17.8838C287.773 18.1523 286.896 18.4746 286.072 18.8506C285.249 19.2266 284.479 19.6204 283.763 20.0322V42H276.727V19.8174ZM348.796 22.8252L362.814 1.34082C364.336 1.43034 365.778 1.54671 367.138 1.68994C368.499 1.81527 369.689 1.94954 370.71 2.09277C371.91 2.25391 373.02 2.41504 374.04 2.57617V8.75293L369.045 7.625V35.3398L374.04 34.2119V40.8721C372.142 41.248 370.271 41.5256 368.427 41.7046C366.583 41.8836 364.712 42.0179 362.814 42.1074V12.6201L348.796 34.373L334.562 12.5664V42.1074C333.041 42.0179 331.599 41.9105 330.239 41.7852C328.878 41.6598 327.688 41.5256 326.667 41.3823C325.467 41.2212 324.357 41.0511 323.337 40.8721V34.2119L328.332 35.3398V7.57129L323.337 8.69922V2.52246C324.357 2.36133 325.467 2.2002 326.667 2.03906C327.688 1.89583 328.878 1.76156 330.239 1.63623C331.599 1.493 333.041 1.37663 334.562 1.28711L348.796 22.8252ZM417.589 31.043C417.141 30.6491 416.586 30.2642 415.924 29.8882C415.261 29.5122 414.447 29.181 413.48 28.8945C412.513 28.5902 411.358 28.3485 410.016 28.1694C408.691 27.9725 407.133 27.874 405.343 27.874C403.749 27.874 402.236 27.9098 400.804 27.9814C399.39 28.0352 398.146 28.2142 397.071 28.5186C395.997 28.805 395.147 29.2705 394.52 29.915C393.893 30.5596 393.58 31.4548 393.58 32.6006V36.0381C395.156 36.2887 396.892 36.4946 398.79 36.6558C400.688 36.8169 402.8 36.8975 405.128 36.8975C406.99 36.8975 408.968 36.8348 411.063 36.7095C413.176 36.5662 415.351 36.2887 417.589 35.877V31.043ZM405.504 11.3848C406.399 11.3848 407.482 11.4295 408.753 11.519C410.025 11.6086 411.349 11.7697 412.728 12.0024C414.107 12.2173 415.467 12.5216 416.81 12.9155C418.171 13.2915 419.388 13.7928 420.462 14.4194C421.555 15.0282 422.432 15.7622 423.094 16.6216C423.757 17.481 424.088 18.4925 424.088 19.6562V40.4424C422.584 40.7467 420.883 41.0063 418.985 41.2212C417.356 41.4181 415.414 41.5972 413.158 41.7583C410.902 41.9194 408.386 42 405.611 42C402.854 42 399.918 41.8836 396.803 41.6509C393.705 41.4181 390.465 41.0153 387.081 40.4424V30.7744C387.081 29.736 387.323 28.8319 387.806 28.062C388.307 27.2743 388.988 26.6029 389.847 26.0479C390.707 25.4928 391.718 25.0363 392.882 24.6782C394.046 24.3201 395.299 24.0337 396.642 23.8188C397.984 23.604 399.381 23.4608 400.831 23.3892C402.281 23.2996 403.731 23.2549 405.182 23.2549C407.384 23.2549 409.255 23.3981 410.794 23.6846C412.352 23.9531 413.641 24.2485 414.662 24.5708C415.843 24.9647 416.819 25.4033 417.589 25.8867V21.5361C417.589 20.8021 417.41 20.1755 417.052 19.6562C416.694 19.1191 416.21 18.6715 415.602 18.3135C414.993 17.9375 414.295 17.6421 413.507 17.4272C412.719 17.1945 411.896 17.0155 411.036 16.8901C410.177 16.7648 409.299 16.6842 408.404 16.6484C407.527 16.6126 406.703 16.5947 405.934 16.5947C405.128 16.5947 404.269 16.6216 403.355 16.6753C402.442 16.7111 401.529 16.7917 400.616 16.917C399.721 17.0423 398.853 17.2214 398.011 17.4541C397.188 17.6689 396.454 17.9644 395.809 18.3403C395.165 18.7163 394.645 19.1729 394.251 19.71C393.875 20.2292 393.688 20.8558 393.688 21.5898L387.027 19.8711C387.027 18.6715 387.323 17.6331 387.914 16.7559C388.504 15.8607 389.283 15.0998 390.25 14.4731C391.235 13.8465 392.363 13.3363 393.634 12.9424C394.905 12.5306 396.221 12.2173 397.582 12.0024C398.96 11.7697 400.33 11.6086 401.69 11.519C403.051 11.4295 404.322 11.3848 405.504 11.3848ZM444.38 42H437.559V11.3848H444.38V42ZM440.996 0.75C442.321 0.75 443.368 0.973796 444.138 1.42139C444.908 1.85107 445.293 2.54036 445.293 3.48926V4.83203C445.293 5.69141 444.908 6.30908 444.138 6.68506C443.368 7.06104 442.321 7.24902 440.996 7.24902C439.725 7.24902 438.695 7.06104 437.908 6.68506C437.138 6.30908 436.753 5.69141 436.753 4.83203V3.48926C436.753 2.54036 437.138 1.85107 437.908 1.42139C438.695 0.973796 439.725 0.75 440.996 0.75ZM465.8 42H459.677V1.66309H465.8V42Z" fill="#FDFDEB"/>
<path d="M29.7744 31.4189L25.4897 33.9959L34.7744 49.4336V31.4189H29.7744ZM29.7744 1.50195L29.9487 -3.49501L24.7744 -3.67551V1.50195H29.7744ZM34.0981 1.79736L33.5678 6.76916L33.6037 6.77298L33.6396 6.77629L34.0981 1.79736ZM37.6968 2.2002L38.4349 -2.74503L38.4074 -2.74912L38.38 -2.75291L37.6968 2.2002ZM41.0537 2.7373H46.0537V-1.4744L41.9032 -2.19L41.0537 2.7373ZM41.0537 9.55859L39.617 14.3477L46.0537 16.2787V9.55859H41.0537ZM36.1123 8.43066L36.965 3.50391L31.1123 2.49094V8.43066H36.1123ZM36.1123 35.501H31.1123V41.2963L36.845 40.447L36.1123 35.501ZM38.771 34.9907L37.6081 30.1278L37.5959 30.1307L37.5837 30.1337L38.771 34.9907ZM41.0537 34.373H46.0537V27.6033L39.5833 29.5942L41.0537 34.373ZM41.0537 40.7109L41.8757 45.6429L46.0537 44.9466V40.7109H41.0537ZM34.5815 41.5972L34.0937 36.621L34.084 36.622L34.5815 41.5972ZM29.7744 41.9463L25.4917 44.5267L27.0337 47.0859L30.018 46.9404L29.7744 41.9463ZM11.7812 12.083L16.0639 9.5026L6.78125 -5.90391V12.083H11.7812ZM11.7812 41.9463L11.5376 46.9404L16.7812 47.1961V41.9463H11.7812ZM9.49854 41.812L9.15841 46.8004L9.49854 41.812ZM4.04688 41.248L3.37506 46.2027L4.04688 41.248ZM0.555664 40.7109H-4.44434V44.9368L-0.277589 45.641L0.555664 40.7109ZM0.555664 33.8896L2.09819 29.1335L-4.44434 27.0116V33.8896H0.555664ZM5.49707 35.0176L4.68963 39.952L10.4971 40.9023V35.0176H5.49707ZM5.49707 7.89355H10.4971V1.97292L4.66 2.96412L5.49707 7.89355ZM2.83838 8.43066L1.67551 3.56777L2.83838 8.43066ZM0.555664 9.02148H-4.44434V15.6268L1.91296 13.8337L0.555664 9.02148ZM0.555664 2.7373L-0.323289 -2.18483L-4.44434 -1.44893V2.7373H0.555664ZM3.85889 2.2002L3.16394 -2.75127L3.14235 -2.74825L3.12079 -2.74503L3.85889 2.2002ZM7.43066 1.79736L7.88925 6.77629L7.92169 6.7733L7.95409 6.76989L7.43066 1.79736ZM11.7812 1.50195L16.066 -1.07505L14.5488 -3.59763L11.6069 -3.49501L11.7812 1.50195ZM34.7744 31.4189V1.50195H24.7744V31.4189H34.7744ZM29.6001 6.49891C31.0371 6.54904 32.3585 6.64016 33.5678 6.76916L34.6285 -3.17443C33.1523 -3.33189 31.5912 -3.43771 29.9487 -3.49501L29.6001 6.49891ZM33.6396 6.77629C34.9463 6.89664 36.0682 7.02291 37.0136 7.1533L38.38 -2.75291C37.2485 -2.90897 35.9714 -3.05127 34.5567 -3.18156L33.6396 6.77629ZM36.9587 7.14542C38.1264 7.31971 39.2079 7.49283 40.2042 7.66461L41.9032 -2.19C40.8227 -2.37629 39.6662 -2.56124 38.4349 -2.74503L36.9587 7.14542ZM36.0537 2.7373V9.55859H46.0537V2.7373H36.0537ZM42.4905 4.76946C40.8242 4.2696 38.9755 3.85188 36.965 3.50391L35.2596 13.3574C36.9731 13.654 38.4186 13.9882 39.617 14.3477L42.4905 4.76946ZM31.1123 8.43066V35.501H41.1123V8.43066H31.1123ZM36.845 40.447C37.9386 40.285 38.9789 40.0871 39.9583 39.8477L37.5837 30.1337C36.9517 30.2882 36.2197 30.4305 35.3796 30.555L36.845 40.447ZM39.9339 39.8536C40.845 39.6357 41.7099 39.4025 42.5241 39.1519L39.5833 29.5942C39.0011 29.7733 38.3441 29.9518 37.6081 30.1278L39.9339 39.8536ZM36.0537 34.373V40.7109H46.0537V34.373H36.0537ZM40.2317 35.779C38.9819 35.9873 37.8603 36.1583 36.8638 36.2934L38.2075 46.2027C39.3236 46.0514 40.5474 45.8643 41.8757 45.6429L40.2317 35.779ZM36.8638 36.2934C35.8592 36.4296 34.9365 36.5384 34.0937 36.621L35.0694 46.5733C36.0528 46.4769 37.0995 46.3529 38.2075 46.2027L36.8638 36.2934ZM34.084 36.622C33.2342 36.707 32.4456 36.7739 31.717 36.8236L32.3972 46.8004C33.2442 46.7427 34.1385 46.6664 35.0791 46.5724L34.084 36.622ZM31.717 36.8236C30.9591 36.8753 30.2304 36.9181 29.5308 36.9522L30.018 46.9404C30.7865 46.9029 31.5797 46.8562 32.3972 46.8004L31.717 36.8236ZM34.0571 39.3659L16.0639 9.5026L7.49855 14.6634L25.4917 44.5267L34.0571 39.3659ZM6.78125 12.083V41.9463H16.7812V12.083H6.78125ZM12.0249 36.9522C11.3253 36.9181 10.5966 36.8753 9.83866 36.8236L9.15841 46.8004C9.97598 46.8562 10.7691 46.9029 11.5376 46.9404L12.0249 36.9522ZM9.83866 36.8236C9.11005 36.7739 8.32148 36.707 7.47164 36.622L6.4766 46.5724C7.41713 46.6664 8.3115 46.7427 9.15841 46.8004L9.83866 36.8236ZM7.47164 36.622C6.64411 36.5392 5.72726 36.4301 4.71869 36.2934L3.37506 46.2027C4.47912 46.3524 5.51377 46.4761 6.4766 46.5724L7.47164 36.622ZM4.71869 36.2934C3.72606 36.1588 2.61706 35.9884 1.38892 35.7809L-0.277589 45.641C1.03659 45.8631 2.25506 46.0508 3.37506 46.2027L4.71869 36.2934ZM5.55566 40.7109V33.8896H-4.44434V40.7109H5.55566ZM-0.986859 38.6458C0.656365 39.1787 2.568 39.6048 4.68963 39.952L6.30451 30.0832C4.48734 29.7859 3.1047 29.46 2.09819 29.1335L-0.986859 38.6458ZM10.4971 35.0176V7.89355H0.49707V35.0176H10.4971ZM4.66 2.96412C3.61624 3.14137 2.62027 3.34185 1.67551 3.56777L4.00124 13.2936C4.70362 13.1256 5.48012 12.968 6.33414 12.823L4.66 2.96412ZM1.67551 3.56777C0.797244 3.77779 -0.0293627 3.99142 -0.801637 4.20924L1.91296 13.8337C2.53718 13.6577 3.23238 13.4774 4.00124 13.2936L1.67551 3.56777ZM5.55566 9.02148V2.7373H-4.44434V9.02148H5.55566ZM1.43462 7.65944C2.38257 7.49016 3.43594 7.31871 4.59698 7.14542L3.12079 -2.74503C1.88275 -2.56024 0.733963 -2.37363 -0.323289 -2.18483L1.43462 7.65944ZM4.55383 7.15166C5.4753 7.02234 6.58386 6.89652 7.88925 6.77629L6.97208 -3.18156C5.55611 -3.05114 4.28349 -2.9084 3.16394 -2.75127L4.55383 7.15166ZM7.95409 6.76989C9.18535 6.64028 10.5182 6.54905 11.9556 6.49891L11.6069 -3.49501C9.96486 -3.43773 8.39733 -3.33202 6.90724 -3.17516L7.95409 6.76989ZM7.4965 4.07895L25.4897 33.9959L34.0592 28.8419L16.066 -1.07505L7.4965 4.07895ZM80.1445 12.0024L79.3122 16.9327L79.3482 16.9387L79.3842 16.9443L80.1445 12.0024ZM84.2803 12.9424L82.832 17.728L82.8609 17.7368L82.89 17.7452L84.2803 12.9424ZM87.9326 14.4731L85.4133 18.792L85.4287 18.8011L85.4443 18.81L87.9326 14.4731ZM90.5645 16.7559L86.5452 19.7301L86.5788 19.7754L86.6134 19.82L90.5645 16.7559ZM91.585 28.9482V33.9482H96.585V28.9482H91.585ZM60.8086 28.9482V23.9482H55.8086V28.9482H60.8086ZM60.8086 35.8232H55.8086V40.1699L60.1129 40.7746L60.8086 35.8232ZM67.0659 36.4678L66.754 41.458L66.7762 41.4594L66.7984 41.4606L67.0659 36.4678ZM80.4668 36.3066L80.0001 31.3285L79.9965 31.3288L80.4668 36.3066ZM86.4019 35.5815L85.6173 30.6435L85.6057 30.6453L86.4019 35.5815ZM91.585 34.5342H96.585V28.0941L90.3458 29.6902L91.585 34.5342ZM91.585 40.4961L92.3648 45.4349L96.585 44.7686V40.4961H91.585ZM81.729 41.6509L81.3628 36.6643L81.3607 36.6645L81.729 41.6509ZM65.2397 41.7852L64.8863 46.7727L64.9059 46.774L64.9254 46.7753L65.2397 41.7852ZM59.3853 41.248L59.9853 36.2842L59.9665 36.2819L59.9477 36.2798L59.3853 41.248ZM54.2559 40.4961H49.2559V44.6427L53.3309 45.4098L54.2559 40.4961ZM55.1421 16.7559L59.2893 19.5489L59.3023 19.5295L59.3151 19.5101L55.1421 16.7559ZM57.5054 14.4731L54.821 10.2548L57.5054 14.4731ZM60.8892 12.9424L62.369 17.7184L62.3899 17.7119L62.4106 17.7053L60.8892 12.9424ZM64.8906 12.0024L65.6606 16.9428L65.6918 16.9379L65.723 16.9327L64.8906 12.0024ZM68.9995 11.519L68.6755 6.52955L68.6713 6.52983L68.9995 11.519ZM60.8086 24.6514H55.8086V29.6514H60.8086V24.6514ZM84.9248 24.6514V29.6514H89.9248V24.6514H84.9248ZM84.3877 19.6562L80.2274 22.4298L80.2493 22.4625L80.2716 22.4949L84.3877 19.6562ZM82.9375 18.3135L80.346 22.5895L80.3741 22.6065L80.4024 22.6231L82.9375 18.3135ZM80.8428 17.4541L79.426 22.2492L79.49 22.2681L79.5545 22.2853L80.8428 17.4541ZM78.3721 16.9438L77.6505 21.8915L77.7011 21.8989L77.7519 21.9052L78.3721 16.9438ZM75.7671 16.7021L75.5589 21.6978L75.5632 21.698L75.7671 16.7021ZM70.7183 16.7021L70.5261 11.7058L70.5223 11.706L70.7183 16.7021ZM65.2666 17.481L66.4793 22.3317L66.5266 22.3198L66.5737 22.3071L65.2666 17.481ZM62.9839 18.3672L65.3615 22.7657L65.407 22.7411L65.4519 22.7156L62.9839 18.3672ZM61.3994 19.71L65.3829 22.7319L65.4074 22.6995L65.4314 22.6668L61.3994 19.71ZM72.8398 16.3848C73.601 16.3848 74.5798 16.4225 75.7967 16.507L76.4895 6.53106C75.1282 6.43652 73.9048 6.38477 72.8398 6.38477V16.3848ZM75.7967 16.507C76.9103 16.5844 78.0816 16.7249 79.3122 16.9327L80.9769 7.07221C79.4503 6.81448 77.9539 6.63276 76.4895 6.53106L75.7967 16.507ZM79.3842 16.9443C80.5466 17.1231 81.6953 17.384 82.832 17.728L85.7286 8.15673C84.1439 7.67716 82.5355 7.31145 80.9048 7.06058L79.3842 16.9443ZM82.89 17.7452C83.9094 18.0403 84.7392 18.3989 85.4133 18.792L90.452 10.1543C88.9776 9.29417 87.3725 8.63221 85.6706 8.13956L82.89 17.7452ZM85.4443 18.81C86.0157 19.1378 86.344 19.4581 86.5452 19.7301L94.5837 13.7816C93.4601 12.2633 92.0338 11.0617 90.421 10.1363L85.4443 18.81ZM86.6134 19.82C86.6135 19.8202 86.6069 19.8115 86.598 19.7948C86.5891 19.7781 86.5824 19.7617 86.5783 19.7492C86.5743 19.7369 86.5755 19.7368 86.578 19.753C86.5805 19.7698 86.585 19.8078 86.585 19.8711H96.585C96.585 17.6572 95.9319 15.5181 94.5155 13.6917L86.6134 19.82ZM86.585 19.8711V28.9482H96.585V19.8711H86.585ZM91.585 23.9482H60.8086V33.9482H91.585V23.9482ZM55.8086 28.9482V35.8232H65.8086V28.9482H55.8086ZM60.1129 40.7746C62.3956 41.0953 64.6097 41.324 66.754 41.458L67.3778 31.4775C65.5117 31.3609 63.5543 31.1599 61.5042 30.8719L60.1129 40.7746ZM66.7984 41.4606C68.885 41.5724 70.8991 41.6289 72.8398 41.6289V31.6289C71.0924 31.6289 69.2573 31.578 67.3334 31.4749L66.7984 41.4606ZM72.8398 41.6289C75.7735 41.6289 78.4763 41.517 80.9371 41.2845L79.9965 31.3288C77.9098 31.526 75.5279 31.6289 72.8398 31.6289V41.6289ZM80.9335 41.2848C83.2988 41.0631 85.3925 40.809 87.198 40.5177L85.6057 30.6453C84.0811 30.8912 82.2182 31.1205 80.0001 31.3285L80.9335 41.2848ZM87.1864 40.5196C89.2231 40.196 91.1061 39.8177 92.8241 39.3782L90.3458 29.6902C88.9844 30.0384 87.412 30.3583 85.6173 30.6435L87.1864 40.5196ZM86.585 34.5342V40.4961H96.585V34.5342H86.585ZM90.8051 35.5573C87.5293 36.0745 84.3823 36.4425 81.3628 36.6643L82.0952 46.6374C85.4136 46.3937 88.8372 45.9919 92.3648 45.4349L90.8051 35.5573ZM81.3607 36.6645C78.3158 36.8894 75.4766 37 72.8398 37V47C75.7532 47 78.8401 46.8779 82.0973 46.6373L81.3607 36.6645ZM72.8398 37C70.1293 37 67.703 36.9304 65.5541 36.795L64.9254 46.7753C67.324 46.9264 69.9644 47 72.8398 47V37ZM65.5932 36.7977C63.3728 36.6403 61.508 36.4682 59.9853 36.2842L58.7852 46.2119C60.521 46.4217 62.5592 46.6077 64.8863 46.7727L65.5932 36.7977ZM59.9477 36.2798C58.1446 36.0757 56.5587 35.8418 55.1808 35.5824L53.3309 45.4098C54.9967 45.7234 56.8303 45.9907 58.8228 46.2163L59.9477 36.2798ZM59.2559 40.4961V19.8711H49.2559V40.4961H59.2559ZM59.2559 19.8711C59.2559 19.6833 59.2787 19.5887 59.2866 19.5608C59.2908 19.5458 59.2933 19.5412 59.2923 19.5434C59.292 19.5441 59.2914 19.5453 59.2906 19.5467C59.2898 19.5481 59.2892 19.5489 59.2893 19.5489L50.9949 13.9629C49.7758 15.773 49.2559 17.8144 49.2559 19.8711H59.2559ZM59.3151 19.5101C59.4852 19.2525 59.7458 18.9739 60.1898 18.6915L54.821 10.2548C53.2955 11.2256 51.9807 12.4689 50.969 14.0016L59.3151 19.5101ZM60.1898 18.6915C60.7514 18.3341 61.4642 17.9987 62.369 17.7184L59.4093 8.16641C57.7718 8.67379 56.2288 9.35898 54.821 10.2548L60.1898 18.6915ZM62.4106 17.7053C63.4467 17.3743 64.5288 17.1192 65.6606 16.9428L64.1207 7.06208C62.4953 7.31539 60.9098 7.68688 59.3677 8.17949L62.4106 17.7053ZM65.723 16.9327C66.9388 16.7274 68.1402 16.5864 69.3278 16.5083L68.6713 6.52983C67.1375 6.63074 65.5996 6.81199 64.0583 7.07221L65.723 16.9327ZM69.3235 16.5085C70.6117 16.4249 71.7825 16.3848 72.8398 16.3848V6.38477C71.5339 6.38477 70.1445 6.43416 68.6755 6.52955L69.3235 16.5085ZM60.8086 29.6514H84.9248V19.6514H60.8086V29.6514ZM89.9248 24.6514V21.5361H79.9248V24.6514H89.9248ZM89.9248 21.5361C89.9248 19.959 89.5274 18.3019 88.5038 16.8176L80.2716 22.4949C80.1318 22.2922 80.0377 22.081 79.9829 21.8892C79.9299 21.7036 79.9248 21.576 79.9248 21.5361H89.9248ZM88.5479 16.8827C87.7329 15.6601 86.67 14.7081 85.4726 14.0038L80.4024 22.6231C80.4193 22.6331 80.3995 22.6235 80.3596 22.5865C80.3185 22.5485 80.2712 22.4953 80.2274 22.4298L88.5479 16.8827ZM85.529 14.0375C84.4587 13.3888 83.3039 12.9357 82.1311 12.6229L79.5545 22.2853C79.993 22.4022 80.2347 22.522 80.346 22.5895L85.529 14.0375ZM82.2595 12.659C81.1975 12.3452 80.1067 12.1218 78.9922 11.9825L77.7519 21.9052C78.3562 21.9808 78.9125 22.0975 79.426 22.2492L82.2595 12.659ZM79.0936 11.9962C78.0608 11.8456 77.0196 11.7491 75.971 11.7063L75.5632 21.698C76.2691 21.7268 76.9646 21.7915 77.6505 21.8915L79.0936 11.9962ZM75.9752 11.7065C75.0544 11.6681 74.17 11.6484 73.3232 11.6484V21.6484C74.0162 21.6484 74.761 21.6646 75.5589 21.6978L75.9752 11.7065ZM73.3232 11.6484C72.4445 11.6484 71.5115 11.6679 70.5261 11.7058L70.9104 21.6985C71.787 21.6647 72.5906 21.6484 73.3232 21.6484V11.6484ZM70.5223 11.706C69.4473 11.7481 68.368 11.8428 67.2851 11.9885L68.6192 21.8992C69.3982 21.7943 70.163 21.7278 70.9142 21.6983L70.5223 11.706ZM67.2851 11.9885C66.1499 12.1414 65.0404 12.3621 63.9595 12.6548L66.5737 22.3071C67.2116 22.1343 67.8924 21.997 68.6192 21.8992L67.2851 11.9885ZM64.0539 12.6302C62.8249 12.9375 61.63 13.3864 60.5159 14.0188L65.4519 22.7156C65.6627 22.596 65.9895 22.4541 66.4793 22.3317L64.0539 12.6302ZM60.6063 13.9687C59.3778 14.6327 58.2532 15.5453 57.3674 16.7531L65.4314 22.6668C65.3875 22.7267 65.3469 22.7662 65.3235 22.7859C65.3017 22.8044 65.3084 22.7944 65.3615 22.7657L60.6063 13.9687ZM57.416 16.688C56.2801 18.1853 55.8086 19.9093 55.8086 21.5898H65.8086C65.8086 21.6723 65.797 21.8434 65.7263 22.0685C65.6536 22.2998 65.5366 22.5293 65.3829 22.7319L57.416 16.688ZM55.8086 21.5898V24.6514H65.8086V21.5898H55.8086ZM120.202 21.1602L115.923 23.7465L120.183 30.7945L124.471 23.7636L120.202 21.1602ZM126.164 11.3848V6.38477H123.357L121.895 8.78131L126.164 11.3848ZM128.205 11.3848L128.482 6.39246L128.344 6.38477H128.205V11.3848ZM135.698 12.1636L134.892 17.0982L134.905 17.1003L134.918 17.1024L135.698 12.1636ZM138.41 12.6738H143.41V8.68269L139.518 7.79816L138.41 12.6738ZM138.41 18.9043L136.04 23.3067L143.41 27.2754V18.9043H138.41ZM136.584 18.2329L135.21 23.0405L135.264 23.0557L135.317 23.0698L136.584 18.2329ZM134.167 17.7227L133.328 22.6518L133.387 22.6617L133.445 22.6703L134.167 17.7227ZM129.279 17.293V12.293H126.476L125.013 14.6847L129.279 17.293ZM123.532 26.6924L119.266 24.0841L117.672 26.6924L119.266 29.3006L123.532 26.6924ZM129.279 36.0918L125.013 38.7L126.476 41.0918H129.279V36.0918ZM134.167 35.689L134.904 40.6344L134.946 40.628L134.989 40.6209L134.167 35.689ZM136.584 35.1787L137.851 40.0156L137.904 40.0015L137.958 39.9863L136.584 35.1787ZM138.41 34.4805H143.41V26.1094L136.04 30.0781L138.41 34.4805ZM138.41 40.7109L139.518 45.5866L143.41 44.7021V40.7109H138.41ZM135.698 41.2212L134.918 36.2824L134.905 36.2844L134.892 36.2865L135.698 41.2212ZM132.502 41.6509L131.934 36.6832L132.502 41.6509ZM128.205 42V47H128.344L128.482 46.9923L128.205 42ZM126.164 42L121.902 44.6139L123.365 47H126.164V42ZM120.202 32.2783L124.464 29.6644L120.183 22.6826L115.929 29.6816L120.202 32.2783ZM114.294 42V47H117.106L118.567 44.5967L114.294 42ZM112.253 42L111.976 46.9923L112.114 47H112.253V42ZM104.76 41.2212L105.566 36.2865L105.553 36.2844L105.54 36.2824L104.76 41.2212ZM102.048 40.7109H97.0479V44.7021L100.94 45.5866L102.048 40.7109ZM102.048 34.4805L104.491 30.1179L97.0479 25.9498V34.4805H102.048ZM103.847 35.1787L102.474 39.9863L102.527 40.0015L102.58 40.0156L103.847 35.1787ZM106.237 35.689L105.398 40.6181L105.457 40.628L105.516 40.6366L106.237 35.689ZM108.815 35.9844L108.4 40.9671L108.409 40.9678L108.815 35.9844ZM111.179 36.0918V41.0918H113.996L115.455 38.6822L111.179 36.0918ZM116.872 26.6924L121.149 29.2828L122.718 26.6924L121.149 24.102L116.872 26.6924ZM111.179 17.293L115.455 14.7025L113.996 12.293H111.179V17.293ZM108.815 17.4004L108.409 12.417L108.4 12.4177L108.815 17.4004ZM106.237 17.7227L106.974 22.6681L107.017 22.6617L107.059 22.6546L106.237 17.7227ZM103.847 18.2329L105.114 23.0698L105.168 23.0557L105.221 23.0405L103.847 18.2329ZM102.048 18.9043H97.0479V27.4349L104.491 23.2668L102.048 18.9043ZM102.048 12.6738L100.94 7.79816L97.0479 8.68269V12.6738H102.048ZM104.76 12.1636L105.54 17.1024L105.553 17.1003L105.566 17.0982L104.76 12.1636ZM112.253 11.3848V6.38477H112.114L111.976 6.39246L112.253 11.3848ZM114.294 11.3848L118.573 8.79847L117.114 6.38477H114.294V11.3848ZM124.471 23.7636L130.433 13.9882L121.895 8.78131L115.933 18.5567L124.471 23.7636ZM126.164 16.3848H128.205V6.38477H126.164V16.3848ZM127.928 16.3771C129.467 16.4626 130.8 16.5719 131.934 16.7015L133.07 6.76622C131.698 6.60942 130.166 6.48597 128.482 6.39246L127.928 16.3771ZM131.934 16.7015C133.138 16.8391 134.119 16.972 134.892 17.0982L136.503 7.22891C135.522 7.06869 134.373 6.91512 133.07 6.76622L131.934 16.7015ZM134.918 17.1024C135.857 17.2507 136.648 17.4008 137.302 17.5495L139.518 7.79816C138.597 7.58874 137.58 7.39876 136.478 7.22476L134.918 17.1024ZM133.41 12.6738V18.9043H143.41V12.6738H133.41ZM140.781 14.5019C139.844 13.9977 138.825 13.6512 137.851 13.396L135.317 23.0698C135.567 23.1353 135.751 23.1943 135.879 23.2414C136.009 23.2893 136.055 23.315 136.04 23.3067L140.781 14.5019ZM137.958 13.4253C136.97 13.143 135.944 12.929 134.889 12.775L133.445 22.6703C134.108 22.767 134.694 22.8931 135.21 23.0405L137.958 13.4253ZM135.006 12.7935C134.023 12.6262 133.031 12.501 132.031 12.4177L131.201 22.3831C131.919 22.443 132.628 22.5327 133.328 22.6518L135.006 12.7935ZM132.031 12.4177C131.064 12.3371 130.144 12.293 129.279 12.293V22.293C129.811 22.293 130.449 22.3205 131.201 22.3831L132.031 12.4177ZM125.013 14.6847L119.266 24.0841L127.798 29.3006L133.545 19.9012L125.013 14.6847ZM119.266 29.3006L125.013 38.7L133.545 33.4836L127.798 24.0841L119.266 29.3006ZM129.279 41.0918C130.144 41.0918 131.064 41.0477 132.031 40.9671L131.201 31.0016C130.449 31.0643 129.811 31.0918 129.279 31.0918V41.0918ZM132.031 40.9671C132.996 40.8867 133.954 40.7758 134.904 40.6344L133.43 30.7435C132.697 30.8527 131.954 30.9389 131.201 31.0016L132.031 40.9671ZM134.989 40.6209C135.98 40.4557 136.936 40.2552 137.851 40.0156L135.317 30.3419C134.728 30.4961 134.072 30.6358 133.345 30.757L134.989 40.6209ZM137.958 39.9863C138.908 39.7149 139.887 39.3641 140.781 38.8828L136.04 30.0781C136.002 30.0981 135.764 30.2128 135.21 30.3711L137.958 39.9863ZM133.41 34.4805V40.7109H143.41V34.4805H133.41ZM137.302 35.8353C136.648 35.9839 135.857 36.1341 134.918 36.2824L136.478 46.16C137.58 45.986 138.597 45.796 139.518 45.5866L137.302 35.8353ZM134.892 36.2865C134.119 36.4128 133.138 36.5457 131.934 36.6832L133.07 46.6185C134.373 46.4696 135.522 46.3161 136.503 46.1559L134.892 36.2865ZM131.934 36.6832C130.8 36.8129 129.467 36.9222 127.928 37.0077L128.482 46.9923C130.166 46.8988 131.698 46.7753 133.07 46.6185L131.934 36.6832ZM128.205 37H126.164V47H128.205V37ZM130.426 39.3861L124.464 29.6644L115.94 34.8922L121.902 44.6139L130.426 39.3861ZM115.929 29.6816L110.021 39.4033L118.567 44.5967L124.475 34.8751L115.929 29.6816ZM114.294 37H112.253V47H114.294V37ZM112.53 37.0077C110.991 36.9222 109.658 36.8129 108.524 36.6832L107.388 46.6185C108.76 46.7753 110.292 46.8988 111.976 46.9923L112.53 37.0077ZM108.524 36.6832C107.32 36.5457 106.339 36.4128 105.566 36.2865L103.955 46.1559C104.936 46.3161 106.085 46.4696 107.388 46.6185L108.524 36.6832ZM105.54 36.2824C104.601 36.1341 103.81 35.9839 103.156 35.8353L100.94 45.5866C101.861 45.796 102.878 45.986 103.98 46.16L105.54 36.2824ZM107.048 40.7109V34.4805H97.0479V40.7109H107.048ZM99.6048 38.843C100.518 39.3541 101.522 39.7144 102.474 39.9863L105.221 30.3711C104.962 30.2971 104.773 30.2324 104.642 30.1817C104.508 30.1297 104.467 30.1045 104.491 30.1179L99.6048 38.843ZM102.58 40.0156C103.486 40.2529 104.427 40.4527 105.398 40.6181L107.076 30.7599C106.365 30.6388 105.712 30.4984 105.114 30.3419L102.58 40.0156ZM105.516 40.6366C106.476 40.7767 107.438 40.8869 108.4 40.9671L109.231 31.0016C108.474 30.9386 107.717 30.8519 106.959 30.7413L105.516 40.6366ZM108.409 40.9678C109.388 41.0478 110.315 41.0918 111.179 41.0918V31.0918C110.646 31.0918 109.997 31.0642 109.222 31.001L108.409 40.9678ZM115.455 38.6822L121.149 29.2828L112.595 24.102L106.902 33.5014L115.455 38.6822ZM121.149 24.102L115.455 14.7025L106.902 19.8834L112.595 29.2828L121.149 24.102ZM111.179 12.293C110.315 12.293 109.388 12.337 108.409 12.417L109.222 22.3838C109.997 22.3205 110.646 22.293 111.179 22.293V12.293ZM108.4 12.4177C107.403 12.5007 106.408 12.6252 105.415 12.7907L107.059 22.6546C107.785 22.5336 108.509 22.4433 109.231 22.3831L108.4 12.4177ZM105.501 12.7772C104.463 12.9318 103.452 13.1458 102.474 13.4253L105.221 23.0405C105.746 22.8904 106.329 22.7642 106.974 22.6681L105.501 12.7772ZM102.58 13.396C101.605 13.6514 100.561 14.0065 99.6048 14.5418L104.491 23.2668C104.445 23.2926 104.465 23.2764 104.581 23.233C104.694 23.1908 104.868 23.1343 105.114 23.0698L102.58 13.396ZM107.048 18.9043V12.6738H97.0479V18.9043H107.048ZM103.156 17.5495C103.81 17.4008 104.601 17.2507 105.54 17.1024L103.98 7.22476C102.878 7.39876 101.861 7.58874 100.94 7.79816L103.156 17.5495ZM105.566 17.0982C106.339 16.972 107.32 16.8391 108.524 16.7015L107.388 6.76622C106.085 6.91512 104.936 7.06869 103.955 7.22891L105.566 17.0982ZM108.524 16.7015C109.658 16.5719 110.991 16.4626 112.53 16.3771L111.976 6.39246C110.292 6.48597 108.76 6.60942 107.388 6.76622L108.524 16.7015ZM112.253 16.3848H114.294V6.38477H112.253V16.3848ZM110.015 13.9711L115.923 23.7465L124.481 18.5739L118.573 8.79847L110.015 13.9711ZM159.078 11.0088H154.078V16.0088H159.078V11.0088ZM165.899 11.0088H170.899V6.00879H165.899V11.0088ZM165.899 15.5205V20.5205H170.899V15.5205H165.899ZM159.078 15.5205V10.5205H154.078V15.5205H159.078ZM159.078 42V47H164.078V42H159.078ZM152.687 42H147.687V47H152.687V42ZM152.687 15.5205H157.687V10.5205H152.687V15.5205ZM147.638 15.5205H142.638V20.5205H147.638V15.5205ZM147.638 11.0088V6.00879H142.638V11.0088H147.638ZM152.687 11.0088V16.0088H157.687V11.0088H152.687ZM152.687 1.66309V-3.33691H147.687V1.66309H152.687ZM159.078 1.66309H164.078V-3.33691H159.078V1.66309ZM159.078 16.0088H165.899V6.00879H159.078V16.0088ZM160.899 11.0088V15.5205H170.899V11.0088H160.899ZM165.899 10.5205H159.078V20.5205H165.899V10.5205ZM154.078 15.5205V42H164.078V15.5205H154.078ZM159.078 37H152.687V47H159.078V37ZM157.687 42V15.5205H147.687V42H157.687ZM152.687 10.5205H147.638V20.5205H152.687V10.5205ZM152.638 15.5205V11.0088H142.638V15.5205H152.638ZM147.638 16.0088H152.687V6.00879H147.638V16.0088ZM157.687 11.0088V1.66309H147.687V11.0088H157.687ZM152.687 6.66309H159.078V-3.33691H152.687V6.66309ZM154.078 1.66309V11.0088H164.078V1.66309H154.078ZM208.455 3.81152L206.291 8.31914L206.3 8.32332L206.308 8.32748L208.455 3.81152ZM214.336 15.1982V20.1982H219.336V15.1982H214.336ZM207.354 15.1982H202.354V20.1982H207.354V15.1982ZM203.916 8.8335L201.709 13.3202L201.724 13.3273L201.738 13.3343L203.916 8.8335ZM199.888 7.57129L198.886 12.4699L198.918 12.4764L198.95 12.4825L199.888 7.57129ZM182.593 10.6328L186.362 13.9185L186.382 13.8949L186.402 13.8711L182.593 10.6328ZM182.593 32.5469L178.783 35.7851L178.803 35.809L178.824 35.8326L182.593 32.5469ZM185.198 34.3999L183.048 38.9142L183.077 38.9282L183.107 38.9418L185.198 34.3999ZM199.888 35.6353L200.836 40.5445L200.857 40.5404L200.879 40.536L199.888 35.6353ZM203.916 34.3462L201.738 29.8454L201.724 29.8524L201.709 29.8594L203.916 34.3462ZM207.354 26.4238H212.354V21.4238H207.354V26.4238ZM202.869 26.5581L202.532 21.5695L202.527 21.5698L202.869 26.5581ZM199.512 26.8267L199.033 21.8496L198.987 21.854L198.942 21.8593L199.512 26.8267ZM196.611 27.2295L191.64 26.6954L190.934 33.2678L197.45 32.1586L196.611 27.2295ZM197.31 20.7305L196.919 15.7458L192.781 16.0703L192.338 20.1964L197.31 20.7305ZM214.336 20.8916H219.336V16.4074L214.878 15.9211L214.336 20.8916ZM212.751 36.2798L216.479 39.6121L216.492 39.5982L216.504 39.5842L212.751 36.2798ZM208.455 39.3413L206.308 34.8254L206.3 34.8295L206.291 34.8337L208.455 39.3413ZM202.17 41.3555L203.123 46.2639L203.14 46.2605L203.158 46.257L202.17 41.3555ZM186.863 41.3555L185.875 46.257L185.893 46.2605L185.91 46.2639L186.863 41.3555ZM180.552 39.3413L178.388 43.8489L178.397 43.8531L178.406 43.8573L180.552 39.3413ZM176.282 36.2798L172.529 39.5842L172.542 39.5982L172.554 39.6121L176.282 36.2798ZM180.552 3.81152L178.406 -0.704432L178.397 -0.700277L178.388 -0.696093L180.552 3.81152ZM186.863 1.79736L185.875 -3.10413L186.863 1.79736ZM194.517 6.07227C196.922 6.07227 199.141 6.28737 201.183 6.69885L203.158 -3.10413C200.402 -3.65944 197.518 -3.92773 194.517 -3.92773V6.07227ZM201.183 6.69885C203.265 7.11844 204.949 7.6752 206.291 8.31914L210.618 -0.696093C208.379 -1.7709 205.874 -2.55691 203.158 -3.10413L201.183 6.69885ZM206.308 8.32748C207.654 8.96705 208.488 9.62429 208.999 10.2043L216.504 3.5955C214.902 1.77642 212.872 0.374748 210.601 -0.704432L206.308 8.32748ZM208.999 10.2043C209.351 10.6045 209.336 10.7753 209.336 10.8477H219.336C219.336 8.05547 218.264 5.59443 216.504 3.5955L208.999 10.2043ZM209.336 10.8477V15.1982H219.336V10.8477H209.336ZM214.336 10.1982H207.354V20.1982H214.336V10.1982ZM212.354 15.1982V12.8887H202.354V15.1982H212.354ZM212.354 12.8887C212.354 10.7224 211.488 8.87992 210.284 7.45681L202.65 13.9162C202.654 13.9201 202.573 13.8261 202.493 13.6274C202.409 13.4179 202.354 13.1613 202.354 12.8887H212.354ZM210.284 7.45681C209.114 6.07359 207.626 5.07408 206.094 4.3327L201.738 13.3343C202.426 13.6671 202.639 13.903 202.65 13.9162L210.284 7.45681ZM206.123 4.34675C204.521 3.55888 202.723 3.02243 200.826 2.66008L198.95 12.4825C200.239 12.7289 201.127 13.0339 201.709 13.3202L206.123 4.34675ZM200.89 2.67271C198.915 2.26889 196.78 2.08789 194.517 2.08789V12.0879C196.264 12.0879 197.709 12.2292 198.886 12.4699L200.89 2.67271ZM194.517 2.08789C192.327 2.08789 190.248 2.25969 188.305 2.6352L190.201 12.4537C191.409 12.2205 192.839 12.0879 194.517 12.0879V2.08789ZM188.305 2.6352C186.443 2.99482 184.688 3.5103 183.107 4.23788L187.288 13.3217C187.964 13.0109 188.912 12.7028 190.201 12.4537L188.305 2.6352ZM183.107 4.23788C181.521 4.96812 179.989 5.97602 178.783 7.39457L186.402 13.8711C186.414 13.8573 186.619 13.6299 187.288 13.3217L183.107 4.23788ZM178.824 7.34714C177.548 8.81101 176.68 10.6957 176.68 12.8887H186.68C186.68 13.1334 186.63 13.3806 186.543 13.5964C186.459 13.8025 186.371 13.9075 186.362 13.9185L178.824 7.34714ZM176.68 12.8887V30.291H186.68V12.8887H176.68ZM176.68 30.291C176.68 32.4849 177.561 34.3478 178.783 35.7851L186.402 29.3086C186.39 29.2944 186.465 29.3791 186.543 29.5698C186.624 29.7718 186.68 30.0226 186.68 30.291H176.68ZM178.824 35.8326C180.01 37.1932 181.505 38.1796 183.048 38.9142L187.347 29.8856C186.634 29.546 186.393 29.297 186.362 29.2612L178.824 35.8326ZM183.107 38.9418C184.688 39.6694 186.443 40.1849 188.305 40.5445L190.201 30.726C188.912 30.4769 187.964 30.1688 187.288 29.858L183.107 38.9418ZM188.305 40.5445C190.248 40.92 192.327 41.0918 194.517 41.0918V31.0918C192.839 31.0918 191.409 30.9592 190.201 30.726L188.305 40.5445ZM194.517 41.0918C196.765 41.0918 198.882 40.922 200.836 40.5445L198.939 30.726C197.742 30.9573 196.279 31.0918 194.517 31.0918V41.0918ZM200.879 40.536C202.762 40.1551 204.541 39.611 206.123 38.8329L201.709 29.8594C201.107 30.1556 200.2 30.4708 198.897 30.7345L200.879 40.536ZM206.094 38.847C207.626 38.1056 209.114 37.1061 210.284 35.7229L202.65 29.2635C202.639 29.2767 202.426 29.5126 201.738 29.8454L206.094 38.847ZM210.284 35.7229C211.488 34.2998 212.354 32.4573 212.354 30.291H202.354C202.354 30.0184 202.409 29.7618 202.493 29.5522C202.573 29.3536 202.654 29.2596 202.65 29.2635L210.284 35.7229ZM212.354 30.291V26.4238H202.354V30.291H212.354ZM207.354 21.4238C205.603 21.4238 203.993 21.4708 202.532 21.5695L203.206 31.5467C204.395 31.4664 205.774 31.4238 207.354 31.4238V21.4238ZM202.527 21.5698C201.191 21.6613 200.024 21.7544 199.033 21.8496L199.99 31.8037C200.862 31.7199 201.933 31.6339 203.21 31.5464L202.527 21.5698ZM198.942 21.8593C197.784 21.9921 196.724 22.1384 195.772 22.3004L197.45 32.1586C198.181 32.0342 199.056 31.9118 200.082 31.7941L198.942 21.8593ZM201.583 27.7636L202.281 21.2646L192.338 20.1964L191.64 26.6954L201.583 27.7636ZM197.701 25.7152C200.327 25.5092 202.774 25.4082 205.044 25.4082V15.4082C202.48 15.4082 199.771 15.5221 196.919 15.7458L197.701 25.7152ZM205.044 25.4082C208.119 25.4082 211.035 25.5612 213.794 25.8621L214.878 15.9211C211.729 15.5775 208.45 15.4082 205.044 15.4082V25.4082ZM209.336 20.8916V32.332H219.336V20.8916H209.336ZM209.336 32.332C209.336 32.4044 209.351 32.5752 208.999 32.9754L216.504 39.5842C218.264 37.5853 219.336 35.1242 219.336 32.332H209.336ZM209.024 32.9475C208.511 33.5214 207.668 34.1791 206.308 34.8254L210.601 43.8573C212.857 42.7848 214.88 41.4014 216.479 39.6121L209.024 32.9475ZM206.291 34.8337C204.949 35.4776 203.265 36.0344 201.183 36.454L203.158 46.257C205.874 45.7097 208.379 44.9237 210.618 43.8489L206.291 34.8337ZM201.218 36.447C199.164 36.8456 196.934 37.0537 194.517 37.0537V47.0537C197.506 47.0537 200.379 46.7963 203.123 46.2639L201.218 36.447ZM194.517 37.0537C192.1 37.0537 189.869 36.8456 187.815 36.447L185.91 46.2639C188.654 46.7963 191.527 47.0537 194.517 47.0537V37.0537ZM187.85 36.454C185.767 36.0341 184.066 35.4757 182.698 34.8254L178.406 43.8573C180.654 44.9257 183.161 45.71 185.875 46.257L187.85 36.454ZM182.715 34.8337C181.374 34.1897 180.531 33.531 180.009 32.9475L172.554 39.6121C174.145 41.3918 176.149 42.7742 178.388 43.8489L182.715 34.8337ZM180.034 32.9754C179.682 32.5752 179.697 32.4044 179.697 32.332H169.697C169.697 35.1242 170.769 37.5853 172.529 39.5842L180.034 32.9754ZM179.697 32.332V10.8477H169.697V32.332H179.697ZM179.697 10.8477C179.697 10.7753 179.682 10.6045 180.034 10.2043L172.529 3.5955C170.769 5.59443 169.697 8.05547 169.697 10.8477H179.697ZM180.034 10.2043C180.554 9.61458 181.388 8.95635 182.715 8.31914L178.388 -0.696093C176.135 0.385445 174.123 1.78614 172.529 3.5955L180.034 10.2043ZM182.698 8.32748C184.066 7.67718 185.767 7.1187 187.85 6.69885L185.875 -3.10413C183.161 -2.55718 180.654 -1.77288 178.406 -0.704432L182.698 8.32748ZM187.85 6.69885C189.893 6.28737 192.111 6.07227 194.517 6.07227V-3.92773C191.516 -3.92773 188.631 -3.65944 185.875 -3.10413L187.85 6.69885ZM252.03 12.0024L251.198 16.9327L251.234 16.9387L251.27 16.9443L252.03 12.0024ZM256.166 12.9424L254.718 17.728L254.747 17.7368L254.776 17.7452L256.166 12.9424ZM259.818 14.4731L257.299 18.792L257.314 18.8011L257.33 18.81L259.818 14.4731ZM262.45 16.7559L258.431 19.7301L258.465 19.7754L258.499 19.82L262.45 16.7559ZM263.471 28.9482V33.9482H268.471V28.9482H263.471ZM232.694 28.9482V23.9482H227.694V28.9482H232.694ZM232.694 35.8232H227.694V40.1699L231.999 40.7746L232.694 35.8232ZM238.952 36.4678L238.64 41.458L238.662 41.4594L238.684 41.4606L238.952 36.4678ZM252.353 36.3066L251.886 31.3285L251.882 31.3288L252.353 36.3066ZM258.288 35.5815L257.503 30.6435L257.491 30.6453L258.288 35.5815ZM263.471 34.5342H268.471V28.0941L262.232 29.6902L263.471 34.5342ZM263.471 40.4961L264.251 45.4349L268.471 44.7686V40.4961H263.471ZM253.615 41.6509L253.249 36.6643L253.246 36.6645L253.615 41.6509ZM237.125 41.7852L236.772 46.7727L236.792 46.774L236.811 46.7753L237.125 41.7852ZM231.271 41.248L231.871 36.2842L231.852 36.2819L231.833 36.2798L231.271 41.248ZM226.142 40.4961H221.142V44.6427L225.217 45.4098L226.142 40.4961ZM227.028 16.7559L231.175 19.5489L231.188 19.5295L231.201 19.5101L227.028 16.7559ZM229.391 14.4731L226.707 10.2548L229.391 14.4731ZM232.775 12.9424L234.255 17.7184L234.276 17.7119L234.296 17.7053L232.775 12.9424ZM236.776 12.0024L237.546 16.9428L237.578 16.9379L237.609 16.9327L236.776 12.0024ZM240.885 11.519L240.561 6.52955L240.557 6.52983L240.885 11.519ZM232.694 24.6514H227.694V29.6514H232.694V24.6514ZM256.811 24.6514V29.6514H261.811V24.6514H256.811ZM256.273 19.6562L252.113 22.4298L252.135 22.4625L252.157 22.4949L256.273 19.6562ZM254.823 18.3135L252.232 22.5895L252.26 22.6065L252.288 22.6231L254.823 18.3135ZM252.729 17.4541L251.312 22.2492L251.376 22.2681L251.44 22.2853L252.729 17.4541ZM250.258 16.9438L249.536 21.8915L249.587 21.8989L249.638 21.9052L250.258 16.9438ZM247.653 16.7021L247.445 21.6978L247.449 21.698L247.653 16.7021ZM242.604 16.7021L242.412 11.7058L242.408 11.706L242.604 16.7021ZM237.152 17.481L238.365 22.3317L238.412 22.3198L238.459 22.3071L237.152 17.481ZM234.87 18.3672L237.247 22.7657L237.293 22.7411L237.338 22.7156L234.87 18.3672ZM233.285 19.71L237.269 22.7319L237.293 22.6995L237.317 22.6668L233.285 19.71ZM244.726 16.3848C245.487 16.3848 246.466 16.4225 247.682 16.507L248.375 6.53106C247.014 6.43652 245.791 6.38477 244.726 6.38477V16.3848ZM247.682 16.507C248.796 16.5844 249.967 16.7249 251.198 16.9327L252.863 7.07221C251.336 6.81448 249.84 6.63276 248.375 6.53106L247.682 16.507ZM251.27 16.9443C252.432 17.1231 253.581 17.384 254.718 17.728L257.614 8.15673C256.03 7.67716 254.421 7.31145 252.791 7.06058L251.27 16.9443ZM254.776 17.7452C255.795 18.0403 256.625 18.3989 257.299 18.792L262.338 10.1543C260.863 9.29417 259.258 8.63221 257.556 8.13956L254.776 17.7452ZM257.33 18.81C257.901 19.1378 258.23 19.4581 258.431 19.7301L266.469 13.7816C265.346 12.2633 263.92 11.0617 262.307 10.1363L257.33 18.81ZM258.499 19.82C258.499 19.8202 258.493 19.8115 258.484 19.7948C258.475 19.7781 258.468 19.7617 258.464 19.7492C258.46 19.7369 258.461 19.7368 258.464 19.753C258.466 19.7698 258.471 19.8078 258.471 19.8711H268.471C268.471 17.6572 267.818 15.5181 266.401 13.6917L258.499 19.82ZM258.471 19.8711V28.9482H268.471V19.8711H258.471ZM263.471 23.9482H232.694V33.9482H263.471V23.9482ZM227.694 28.9482V35.8232H237.694V28.9482H227.694ZM231.999 40.7746C234.281 41.0953 236.495 41.324 238.64 41.458L239.264 31.4775C237.397 31.3609 235.44 31.1599 233.39 30.8719L231.999 40.7746ZM238.684 41.4606C240.771 41.5724 242.785 41.6289 244.726 41.6289V31.6289C242.978 31.6289 241.143 31.578 239.219 31.4749L238.684 41.4606ZM244.726 41.6289C247.659 41.6289 250.362 41.517 252.823 41.2845L251.882 31.3288C249.796 31.526 247.414 31.6289 244.726 31.6289V41.6289ZM252.819 41.2848C255.185 41.0631 257.278 40.809 259.084 40.5177L257.491 30.6453C255.967 30.8912 254.104 31.1205 251.886 31.3285L252.819 41.2848ZM259.072 40.5196C261.109 40.196 262.992 39.8177 264.71 39.3782L262.232 29.6902C260.87 30.0384 259.298 30.3583 257.503 30.6435L259.072 40.5196ZM258.471 34.5342V40.4961H268.471V34.5342H258.471ZM262.691 35.5573C259.415 36.0745 256.268 36.4425 253.249 36.6643L253.981 46.6374C257.299 46.3937 260.723 45.9919 264.251 45.4349L262.691 35.5573ZM253.246 36.6645C250.202 36.8894 247.362 37 244.726 37V47C247.639 47 250.726 46.8779 253.983 46.6373L253.246 36.6645ZM244.726 37C242.015 37 239.589 36.9304 237.44 36.795L236.811 46.7753C239.21 46.9264 241.85 47 244.726 47V37ZM237.479 36.7977C235.259 36.6403 233.394 36.4682 231.871 36.2842L230.671 46.2119C232.407 46.4217 234.445 46.6077 236.772 46.7727L237.479 36.7977ZM231.833 36.2798C230.03 36.0757 228.444 35.8418 227.067 35.5824L225.217 45.4098C226.882 45.7234 228.716 45.9907 230.709 46.2163L231.833 36.2798ZM231.142 40.4961V19.8711H221.142V40.4961H231.142ZM231.142 19.8711C231.142 19.6833 231.164 19.5887 231.172 19.5608C231.177 19.5458 231.179 19.5412 231.178 19.5434C231.178 19.5441 231.177 19.5453 231.176 19.5467C231.175 19.5481 231.175 19.5489 231.175 19.5489L222.881 13.9629C221.662 15.773 221.142 17.8144 221.142 19.8711H231.142ZM231.201 19.5101C231.371 19.2525 231.632 18.9739 232.075 18.6915L226.707 10.2548C225.181 11.2256 223.866 12.4689 222.855 14.0016L231.201 19.5101ZM232.075 18.6915C232.637 18.3341 233.35 17.9987 234.255 17.7184L231.295 8.16641C229.658 8.67379 228.115 9.35898 226.707 10.2548L232.075 18.6915ZM234.296 17.7053C235.332 17.3743 236.415 17.1192 237.546 16.9428L236.006 7.06208C234.381 7.31539 232.796 7.68688 231.253 8.17949L234.296 17.7053ZM237.609 16.9327C238.825 16.7274 240.026 16.5864 241.213 16.5083L240.557 6.52983C239.023 6.63074 237.485 6.81199 235.944 7.07221L237.609 16.9327ZM241.209 16.5085C242.497 16.4249 243.668 16.3848 244.726 16.3848V6.38477C243.42 6.38477 242.03 6.43416 240.561 6.52955L241.209 16.5085ZM232.694 29.6514H256.811V19.6514H232.694V29.6514ZM261.811 24.6514V21.5361H251.811V24.6514H261.811ZM261.811 21.5361C261.811 19.959 261.413 18.3019 260.389 16.8176L252.157 22.4949C252.018 22.2922 251.923 22.081 251.869 21.8892C251.816 21.7036 251.811 21.576 251.811 21.5361H261.811ZM260.434 16.8827C259.619 15.6601 258.556 14.7081 257.358 14.0038L252.288 22.6231C252.305 22.6331 252.285 22.6235 252.245 22.5865C252.204 22.5485 252.157 22.4953 252.113 22.4298L260.434 16.8827ZM257.415 14.0375C256.344 13.3888 255.19 12.9357 254.017 12.6229L251.44 22.2853C251.879 22.4022 252.12 22.522 252.232 22.5895L257.415 14.0375ZM254.145 12.659C253.083 12.3452 251.992 12.1218 250.878 11.9825L249.638 21.9052C250.242 21.9808 250.798 22.0975 251.312 22.2492L254.145 12.659ZM250.979 11.9962C249.947 11.8456 248.905 11.7491 247.857 11.7063L247.449 21.698C248.155 21.7268 248.85 21.7915 249.536 21.8915L250.979 11.9962ZM247.861 11.7065C246.94 11.6681 246.056 11.6484 245.209 11.6484V21.6484C245.902 21.6484 246.647 21.6646 247.445 21.6978L247.861 11.7065ZM245.209 11.6484C244.33 11.6484 243.397 11.6679 242.412 11.7058L242.796 21.6985C243.673 21.6647 244.476 21.6484 245.209 21.6484V11.6484ZM242.408 11.706C241.333 11.7481 240.254 11.8428 239.171 11.9885L240.505 21.8992C241.284 21.7943 242.049 21.7278 242.8 21.6983L242.408 11.706ZM239.171 11.9885C238.036 12.1414 236.926 12.3621 235.845 12.6548L238.459 22.3071C239.097 22.1343 239.778 21.997 240.505 21.8992L239.171 11.9885ZM235.94 12.6302C234.711 12.9375 233.516 13.3864 232.402 14.0188L237.338 22.7156C237.548 22.596 237.875 22.4541 238.365 22.3317L235.94 12.6302ZM232.492 13.9687C231.264 14.6327 230.139 15.5453 229.253 16.7531L237.317 22.6668C237.273 22.7267 237.233 22.7662 237.209 22.7859C237.187 22.8044 237.194 22.7944 237.247 22.7657L232.492 13.9687ZM229.302 16.688C228.166 18.1853 227.694 19.9093 227.694 21.5898H237.694C237.694 21.6723 237.683 21.8434 237.612 22.0685C237.539 22.2998 237.422 22.5293 237.269 22.7319L229.302 16.688ZM227.694 21.5898V24.6514H237.694V21.5898H227.694ZM276.727 19.8174H281.727V19.5061L281.688 19.1972L276.727 19.8174ZM276.216 18.3672L271.998 21.0516L272.041 21.1184L272.085 21.1839L276.216 18.3672ZM275.384 17.4004L272.05 21.1266L272.126 21.1949L272.205 21.26L275.384 17.4004ZM274.256 16.6484L269.915 14.1677L267.246 18.8382L272.099 21.1591L274.256 16.6484ZM277.264 11.3848L278.921 6.66747L274.99 5.2862L272.922 8.90407L277.264 11.3848ZM279.251 12.3247L281.864 8.0617L281.835 8.04417L281.806 8.02703L279.251 12.3247ZM280.997 13.6406L277.688 17.3898L277.747 17.4412L277.806 17.4907L280.997 13.6406ZM282.635 15.5742L278.356 18.1613L281.01 22.5504L285.33 19.7856L282.635 15.5742ZM285.374 13.9629L287.745 18.3652L287.759 18.3573L287.774 18.3492L285.374 13.9629ZM288.328 12.6201L286.626 7.91879L286.613 7.92356L286.6 7.9284L288.328 12.6201ZM291.578 11.7339L292.513 16.6456L292.543 16.6399L292.573 16.6338L291.578 11.7339ZM302.347 12.083L301.197 16.9489L301.222 16.955L301.248 16.9608L302.347 12.083ZM307.208 14.124L304.263 18.1652L304.296 18.1889L304.329 18.2121L307.208 14.124ZM310.887 42V47H315.887V42H310.887ZM303.851 42H298.851V47H303.851V42ZM303.448 21.2676L298.752 22.9855L298.759 23.0044L298.766 23.0232L303.448 21.2676ZM302.347 19.4146L298.56 22.6792L298.62 22.7492L298.683 22.8168L302.347 19.4146ZM298.855 17.4272L297.517 22.2448L297.595 22.2665L297.674 22.2856L298.855 17.4272ZM296.868 17.0781L296.345 22.0507L296.41 22.0575L296.475 22.0626L296.868 17.0781ZM288.704 17.8838L290.09 22.6879L290.132 22.6757L290.175 22.6627L288.704 17.8838ZM283.763 20.0322L281.27 15.6977L278.763 17.1396V20.0322H283.763ZM283.763 42V47H288.763V42H283.763ZM276.727 42H271.727V47H276.727V42ZM281.688 19.1972C281.538 18.001 281.148 16.7247 280.347 15.5505L272.085 21.1839C271.822 20.7974 271.771 20.4879 271.765 20.4376L281.688 19.1972ZM280.435 15.6828C279.952 14.9244 279.34 14.181 278.562 13.5407L272.205 21.26C272.036 21.1211 271.979 21.0223 271.998 21.0516L280.435 15.6828ZM278.718 13.6742C278.025 13.0539 277.252 12.5391 276.413 12.1378L272.099 21.1591C272.093 21.1565 272.084 21.1516 272.073 21.1444C272.062 21.1371 272.054 21.1306 272.05 21.1266L278.718 13.6742ZM278.597 19.1291L281.605 13.8655L272.922 8.90407L269.915 14.1677L278.597 19.1291ZM275.606 16.1021C275.928 16.215 276.291 16.3815 276.696 16.6224L281.806 8.02703C280.887 7.48012 279.925 7.02006 278.921 6.66747L275.606 16.1021ZM276.638 16.5877C276.896 16.7455 277.246 16.9992 277.688 17.3898L284.305 9.89144C283.53 9.20787 282.716 8.58428 281.864 8.0617L276.638 16.5877ZM277.806 17.4907C277.959 17.6172 278.15 17.8202 278.356 18.1613L286.913 12.9871C286.189 11.7886 285.287 10.7025 284.187 9.79052L277.806 17.4907ZM285.33 19.7856C286.12 19.28 286.925 18.8067 287.745 18.3652L283.004 9.56054C281.961 10.1217 280.94 10.7226 279.939 11.3629L285.33 19.7856ZM287.774 18.3492C288.506 17.9488 289.266 17.6031 290.057 17.3118L286.6 7.9284C285.349 8.38904 284.14 8.93853 282.974 9.57658L287.774 18.3492ZM290.03 17.3214C290.81 17.0393 291.636 16.8127 292.513 16.6456L290.642 6.82219C289.264 7.08474 287.924 7.44896 286.626 7.91879L290.03 17.3214ZM292.573 16.6338C293.355 16.4749 294.246 16.3848 295.257 16.3848V6.38477C293.654 6.38477 292.091 6.52741 290.582 6.83395L292.573 16.6338ZM295.257 16.3848C297.756 16.3848 299.712 16.598 301.197 16.9489L303.497 7.21708C301.043 6.63702 298.272 6.38477 295.257 6.38477V16.3848ZM301.248 16.9608C302.768 17.3032 303.706 17.7589 304.263 18.1652L310.152 10.0828C308.203 8.663 305.9 7.75796 303.445 7.20519L301.248 16.9608ZM304.329 18.2121C304.902 18.6158 305.222 19.0354 305.424 19.4947L314.577 15.4673C313.598 13.241 312.055 11.4226 310.086 10.036L304.329 18.2121ZM305.424 19.4947C305.681 20.0791 305.887 20.9344 305.887 22.1807H315.887C315.887 19.8462 315.502 17.5683 314.577 15.4673L305.424 19.4947ZM305.887 22.1807V42H315.887V22.1807H305.887ZM310.887 37H303.851V47H310.887V37ZM308.851 42V23.8457H298.851V42H308.851ZM308.851 23.8457C308.851 22.4199 308.663 20.9338 308.129 19.512L298.766 23.0232C298.766 23.0231 298.788 23.0824 298.81 23.2211C298.832 23.3603 298.851 23.5647 298.851 23.8457H308.851ZM308.143 19.5497C307.679 18.2796 306.989 17.0655 306.011 16.0123L298.683 22.8168C298.663 22.7953 298.661 22.7882 298.673 22.8079C298.685 22.8288 298.715 22.8838 298.752 22.9855L308.143 19.5497ZM306.134 16.1499C305.278 15.1568 304.258 14.3455 303.102 13.7334L298.423 22.5713C298.484 22.6037 298.521 22.6339 298.56 22.6792L306.134 16.1499ZM303.102 13.7334C302.131 13.2193 301.106 12.829 300.037 12.5689L297.674 22.2856C297.929 22.3478 298.176 22.4409 298.423 22.5713L303.102 13.7334ZM300.194 12.6097C299.234 12.3431 298.255 12.1721 297.262 12.0936L296.475 22.0626C296.842 22.0916 297.188 22.1533 297.517 22.2448L300.194 12.6097ZM297.392 12.1056C296.558 12.0179 295.738 11.9707 294.935 11.9707V21.9707C295.349 21.9707 295.817 21.9951 296.345 22.0507L297.392 12.1056ZM294.935 11.9707C293.555 11.9707 292.205 12.0677 290.892 12.2715L292.425 22.1533C293.188 22.0348 294.023 21.9707 294.935 21.9707V11.9707ZM290.892 12.2715C289.633 12.4668 288.412 12.7423 287.234 13.1049L290.175 22.6627C290.858 22.4524 291.606 22.2803 292.425 22.1533L290.892 12.2715ZM287.318 13.0797C286.167 13.4116 285.058 13.8172 283.996 14.3021L288.149 23.399C288.734 23.132 289.379 22.8931 290.09 22.6879L287.318 13.0797ZM283.996 14.3021C283.044 14.7368 282.134 15.2012 281.27 15.6977L286.255 24.3668C286.824 24.0397 287.454 23.7163 288.149 23.399L283.996 14.3021ZM278.763 20.0322V42H288.763V20.0322H278.763ZM283.763 37H276.727V47H283.763V37ZM281.727 42V19.8174H271.727V42H281.727ZM348.796 22.8252L344.624 25.5819L348.822 31.9343L352.983 25.5575L348.796 22.8252ZM362.814 1.34082L363.108 -3.65055L360.212 -3.8209L358.627 -1.39148L362.814 1.34082ZM367.138 1.68994L366.615 6.66247L366.647 6.66588L366.68 6.66887L367.138 1.68994ZM370.71 2.09277L370.015 7.04424L370.03 7.0463L370.044 7.04827L370.71 2.09277ZM374.04 2.57617H379.04V-1.6963L374.82 -2.36264L374.04 2.57617ZM374.04 8.75293L372.939 13.6301L379.04 15.0078V8.75293H374.04ZM369.045 7.625L370.146 2.7478L364.045 1.37008V7.625H369.045ZM369.045 35.3398H364.045V41.5948L370.146 40.217L369.045 35.3398ZM374.04 34.2119H379.04V27.957L372.939 29.3347L374.04 34.2119ZM374.04 40.8721L375.012 45.7767L379.04 44.9787V40.8721H374.04ZM362.814 42.1074H357.814V47.3488L363.05 47.1019L362.814 42.1074ZM362.814 12.6201H367.814V-4.36868L358.612 9.91161L362.814 12.6201ZM348.796 34.373L344.609 37.106L348.823 43.5618L352.999 37.0816L348.796 34.373ZM334.562 12.5664L338.75 9.83349L329.562 -4.24172V12.5664H334.562ZM334.562 42.1074L334.269 47.0988L339.562 47.4102V42.1074H334.562ZM326.667 41.3823L327.362 36.4309L327.347 36.4288L327.333 36.4268L326.667 41.3823ZM323.337 40.8721H318.337V45.0712L322.473 45.7969L323.337 40.8721ZM323.337 34.2119L324.438 29.3347L318.337 27.957V34.2119H323.337ZM328.332 35.3398L327.231 40.217L333.332 41.5948V35.3398H328.332ZM328.332 7.57129H333.332V1.31637L327.231 2.69408L328.332 7.57129ZM323.337 8.69922H318.337V14.9541L324.438 13.5764L323.337 8.69922ZM323.337 2.52246L322.557 -2.41635L318.337 -1.75001V2.52246H323.337ZM326.667 2.03906L327.333 6.99455L327.347 6.99259L327.362 6.99053L326.667 2.03906ZM330.239 1.63623L330.697 6.61516L330.73 6.61217L330.762 6.60876L330.239 1.63623ZM334.562 1.28711L338.734 -1.46956L337.145 -3.87346L334.269 -3.70426L334.562 1.28711ZM352.983 25.5575L367.002 4.07312L358.627 -1.39148L344.608 20.0929L352.983 25.5575ZM362.521 6.33219C363.974 6.4177 365.339 6.52813 366.615 6.66247L367.662 -3.28259C366.216 -3.43471 364.698 -3.55702 363.108 -3.65055L362.521 6.33219ZM366.68 6.66887C367.985 6.7891 369.094 6.91492 370.015 7.04424L371.405 -2.8587C370.285 -3.01583 369.013 -3.15857 367.597 -3.28898L366.68 6.66887ZM370.044 7.04827C371.212 7.20512 372.283 7.36076 373.26 7.51499L374.82 -2.36264C373.756 -2.53068 372.607 -2.69731 371.376 -2.86272L370.044 7.04827ZM369.04 2.57617V8.75293H379.04V2.57617H369.04ZM375.141 3.87572L370.146 2.7478L367.944 12.5022L372.939 13.6301L375.141 3.87572ZM364.045 7.625V35.3398H374.045V7.625H364.045ZM370.146 40.217L375.141 39.0891L372.939 29.3347L367.944 30.4626L370.146 40.217ZM369.04 34.2119V40.8721H379.04V34.2119H369.04ZM373.068 35.9674C371.325 36.3128 369.617 36.5656 367.944 36.728L368.91 46.6812C370.925 46.4856 372.959 46.1833 375.012 45.7767L373.068 35.9674ZM367.944 36.728C366.184 36.8988 364.396 37.0273 362.579 37.113L363.05 47.1019C365.028 47.0086 366.982 46.8684 368.91 46.6812L367.944 36.728ZM367.814 42.1074V12.6201H357.814V42.1074H367.814ZM358.612 9.91161L344.593 31.6645L352.999 37.0816L367.017 15.3286L358.612 9.91161ZM352.983 31.6401L338.75 9.83349L330.375 15.2993L344.609 37.106L352.983 31.6401ZM329.562 12.5664V42.1074H339.562V12.5664H329.562ZM334.856 37.1161C333.383 37.0294 331.997 36.926 330.697 36.8062L329.78 46.7641C331.202 46.895 332.698 47.0064 334.269 47.0988L334.856 37.1161ZM330.697 36.8062C329.392 36.686 328.283 36.5602 327.362 36.4309L325.972 46.3338C327.092 46.4909 328.364 46.6337 329.78 46.7641L330.697 36.8062ZM327.333 36.4268C326.189 36.2732 325.146 36.113 324.201 35.9473L322.473 45.7969C323.569 45.9892 324.746 46.1692 326.001 46.3378L327.333 36.4268ZM328.337 40.8721V34.2119H318.337V40.8721H328.337ZM322.236 39.0891L327.231 40.217L329.433 30.4626L324.438 29.3347L322.236 39.0891ZM333.332 35.3398V7.57129H323.332V35.3398H333.332ZM327.231 2.69408L322.236 3.82201L324.438 13.5764L329.433 12.4485L327.231 2.69408ZM328.337 8.69922V2.52246H318.337V8.69922H328.337ZM324.117 7.46128C325.093 7.30705 326.165 7.15141 327.333 6.99455L326.001 -2.91643C324.77 -2.75102 323.621 -2.58439 322.557 -2.41635L324.117 7.46128ZM327.362 6.99053C328.283 6.8612 329.392 6.73539 330.697 6.61516L329.78 -3.3427C328.364 -3.21228 327.092 -3.06954 325.972 -2.91241L327.362 6.99053ZM330.762 6.60876C332.038 6.47442 333.403 6.36399 334.856 6.27848L334.269 -3.70426C332.679 -3.61073 331.161 -3.48842 329.715 -3.3363L330.762 6.60876ZM330.391 4.04378L344.624 25.5819L352.967 20.0685L338.734 -1.46956L330.391 4.04378ZM417.589 31.043H422.589V28.7826L420.892 27.2894L417.589 31.043ZM413.48 28.8945L411.979 33.6638L412.019 33.6765L412.06 33.6885L413.48 28.8945ZM410.016 28.1694L409.28 33.1151L409.318 33.1206L409.355 33.1256L410.016 28.1694ZM400.804 27.9814L400.994 32.9778L401.024 32.9767L401.054 32.9752L400.804 27.9814ZM397.071 28.5186L398.36 33.3497L398.397 33.3397L398.434 33.3292L397.071 28.5186ZM393.58 36.0381H388.58V40.3055L392.794 40.976L393.58 36.0381ZM411.063 36.7095L411.362 41.7005L411.381 41.6994L411.401 41.698L411.063 36.7095ZM417.589 35.877L418.494 40.7944L422.589 40.0409V35.877H417.589ZM412.728 12.0024L411.896 16.9327L411.927 16.9379L411.958 16.9428L412.728 12.0024ZM416.81 12.9155L415.403 17.7134L415.44 17.7244L415.478 17.7349L416.81 12.9155ZM420.462 14.4194L417.943 18.7383L417.985 18.763L418.028 18.7868L420.462 14.4194ZM424.088 40.4424L425.08 45.343L429.088 44.5318V40.4424H424.088ZM418.985 41.2212L418.423 36.2529L418.404 36.2551L418.385 36.2573L418.985 41.2212ZM396.803 41.6509L396.428 46.6368L396.43 46.637L396.803 41.6509ZM387.081 40.4424H382.081V44.667L386.246 45.3722L387.081 40.4424ZM387.806 28.062L383.588 25.3776L383.58 25.3904L383.572 25.4032L387.806 28.062ZM400.831 23.3892L401.078 28.3831L401.108 28.3816L401.139 28.3797L400.831 23.3892ZM410.794 23.6846L409.88 28.6002L409.912 28.6063L409.945 28.6119L410.794 23.6846ZM414.662 24.5708L416.243 19.8274L416.205 19.8148L416.167 19.8029L414.662 24.5708ZM417.589 25.8867L414.93 30.1212L422.589 34.9302V25.8867H417.589ZM417.052 19.6562L412.892 22.4298L412.913 22.4625L412.936 22.4949L417.052 19.6562ZM415.602 18.3135L412.974 22.5675L413.02 22.5958L413.066 22.6231L415.602 18.3135ZM413.507 17.4272L412.09 22.2223L412.141 22.2372L412.191 22.2511L413.507 17.4272ZM408.404 16.6484L408.2 21.6443L408.204 21.6444L408.404 16.6484ZM403.355 16.6753L403.551 21.6715L403.6 21.6695L403.649 21.6667L403.355 16.6753ZM400.616 16.917L399.936 11.9634L399.923 11.9653L400.616 16.917ZM398.011 17.4541L399.273 22.2922L399.309 22.2829L399.344 22.2732L398.011 17.4541ZM394.251 19.71L390.219 16.7531L390.211 16.7653L390.202 16.7774L394.251 19.71ZM393.688 21.5898L392.438 26.4312L398.688 28.044V21.5898H393.688ZM387.027 19.8711H382.027V23.7446L385.778 24.7125L387.027 19.8711ZM387.914 16.7559L392.061 19.5489L392.074 19.5295L392.087 19.5101L387.914 16.7559ZM390.25 14.4731L387.566 10.2548L387.548 10.266L387.531 10.2774L390.25 14.4731ZM393.634 12.9424L395.114 17.7184L395.144 17.7089L395.175 17.699L393.634 12.9424ZM397.582 12.0024L398.361 16.9413L398.388 16.9371L398.414 16.9327L397.582 12.0024ZM420.892 27.2894C420.128 26.6169 419.275 26.0408 418.392 25.5398L413.456 34.2366C413.898 34.4875 414.155 34.6813 414.286 34.7965L420.892 27.2894ZM418.392 25.5398C417.312 24.9267 416.122 24.4626 414.9 24.1005L412.06 33.6885C412.771 33.8994 413.211 34.0978 413.456 34.2366L418.392 25.5398ZM414.981 24.1253C413.667 23.7114 412.216 23.4185 410.676 23.2133L409.355 33.1256C410.501 33.2784 411.36 33.469 411.979 33.6638L414.981 24.1253ZM410.751 23.2238C409.117 22.9809 407.303 22.874 405.343 22.874V32.874C406.963 32.874 408.264 32.964 409.28 33.1151L410.751 23.2238ZM405.343 22.874C403.675 22.874 402.078 22.9115 400.555 22.9877L401.054 32.9752C402.395 32.9082 403.824 32.874 405.343 32.874V22.874ZM400.614 22.985C398.903 23.05 397.251 23.2709 395.708 23.7079L398.434 33.3292C399.04 33.1575 399.876 33.0203 400.994 32.9778L400.614 22.985ZM395.783 23.6874C394.041 24.1518 392.325 25 390.935 26.4296L398.105 33.4004C398.044 33.4627 398.007 33.4805 398.029 33.4685C398.055 33.4539 398.154 33.4044 398.36 33.3497L395.783 23.6874ZM390.935 26.4296C389.17 28.2448 388.58 30.5266 388.58 32.6006H398.58C398.58 32.4767 398.598 32.5409 398.534 32.7216C398.464 32.9218 398.326 33.1727 398.105 33.4004L390.935 26.4296ZM388.58 32.6006V36.0381H398.58V32.6006H388.58ZM392.794 40.976C394.511 41.249 396.37 41.4683 398.367 41.6378L399.213 31.6737C397.414 31.521 395.801 31.3285 394.366 31.1002L392.794 40.976ZM398.367 41.6378C400.432 41.8132 402.689 41.8975 405.128 41.8975V31.8975C402.912 31.8975 400.943 31.8206 399.213 31.6737L398.367 41.6378ZM405.128 41.8975C407.101 41.8975 409.18 41.8311 411.362 41.7005L410.764 31.7184C408.757 31.8385 406.879 31.8975 405.128 31.8975V41.8975ZM411.401 41.698C413.717 41.541 416.082 41.2381 418.494 40.7944L416.684 30.9595C414.62 31.3393 412.634 31.5915 410.725 31.7209L411.401 41.698ZM422.589 35.877V31.043H412.589V35.877H422.589ZM405.504 16.3848C406.244 16.3848 407.203 16.4223 408.402 16.5067L409.105 6.53139C407.761 6.43678 406.554 6.38477 405.504 6.38477V16.3848ZM408.402 16.5067C409.497 16.5838 410.661 16.7243 411.896 16.9327L413.56 7.07221C412.038 6.81512 410.552 6.6333 409.105 6.53139L408.402 16.5067ZM411.958 16.9428C413.121 17.124 414.268 17.3807 415.403 17.7134L418.217 8.11768C416.666 7.66263 415.093 7.31058 413.498 7.06208L411.958 16.9428ZM415.478 17.7349C416.478 18.0112 417.288 18.3561 417.943 18.7383L422.982 10.1005C421.489 9.22956 419.863 8.57181 418.142 8.09612L415.478 17.7349ZM418.028 18.7868C418.617 19.1152 418.944 19.4276 419.134 19.6741L427.054 13.569C425.919 12.0968 424.492 10.9411 422.897 10.052L418.028 18.7868ZM419.134 19.6741C419.132 19.6719 419.124 19.6602 419.113 19.6399C419.102 19.6195 419.094 19.5987 419.088 19.5807C419.082 19.5629 419.081 19.5561 419.083 19.5646C419.084 19.5736 419.088 19.6029 419.088 19.6562H429.088C429.088 17.4735 428.441 15.3685 427.054 13.569L419.134 19.6741ZM419.088 19.6562V40.4424H429.088V19.6562H419.088ZM423.096 35.5417C421.764 35.8114 420.21 36.0506 418.423 36.2529L419.548 46.1895C421.556 45.9621 423.404 45.6821 425.08 45.343L423.096 35.5417ZM418.385 36.2573C416.861 36.4416 415.004 36.6137 412.801 36.771L413.514 46.7456C415.823 46.5806 417.851 46.3947 419.585 46.1851L418.385 36.2573ZM412.801 36.771C410.687 36.922 408.293 37 405.611 37V47C408.48 47 411.117 46.9168 413.514 46.7456L412.801 36.771ZM405.611 37C402.993 37 400.182 36.8895 397.175 36.6648L396.43 46.637C399.653 46.8778 402.715 47 405.611 47V37ZM397.177 36.6649C394.249 36.4449 391.163 36.0623 387.916 35.5125L386.246 45.3722C389.767 45.9683 393.162 46.3914 396.428 46.6368L397.177 36.6649ZM392.081 40.4424V30.7744H382.081V40.4424H392.081ZM392.081 30.7744C392.081 30.6441 392.096 30.5965 392.093 30.6088C392.091 30.6143 392.087 30.6297 392.077 30.6519C392.067 30.6744 392.055 30.698 392.041 30.7209L383.572 25.4032C382.52 27.0783 382.081 28.9324 382.081 30.7744H392.081ZM392.024 30.7464C392.103 30.6226 392.247 30.45 392.56 30.248L387.135 21.8477C385.728 22.7558 384.512 23.9259 383.588 25.3776L392.024 30.7464ZM392.56 30.248C392.969 29.984 393.547 29.705 394.352 29.4571L391.411 19.8993C389.89 20.3676 388.444 21.0017 387.135 21.8477L392.56 30.248ZM394.352 29.4571C395.269 29.175 396.293 28.9383 397.432 28.7561L395.852 18.8816C394.305 19.1291 392.822 19.4653 391.411 19.8993L394.352 29.4571ZM397.432 28.7561C398.583 28.5719 399.797 28.4463 401.078 28.3831L400.584 18.3952C398.964 18.4753 397.386 18.6362 395.852 18.8816L397.432 28.7561ZM401.139 28.3797C402.487 28.2965 403.834 28.2549 405.182 28.2549V18.2549C403.628 18.2549 402.076 18.3028 400.523 18.3987L401.139 28.3797ZM405.182 28.2549C407.19 28.2549 408.736 28.3873 409.88 28.6002L411.709 18.7689C409.774 18.4089 407.578 18.2549 405.182 18.2549V28.2549ZM409.945 28.6119C411.375 28.8584 412.425 29.108 413.156 29.3387L416.167 19.8029C414.857 19.3891 413.33 19.0479 411.644 18.7573L409.945 28.6119ZM413.08 29.3142C414.013 29.6249 414.596 29.9115 414.93 30.1212L420.248 21.6523C419.042 20.8951 417.674 20.3044 416.243 19.8274L413.08 29.3142ZM422.589 25.8867V21.5361H412.589V25.8867H422.589ZM422.589 21.5361C422.589 19.959 422.191 18.3019 421.168 16.8176L412.936 22.4949C412.796 22.2922 412.702 22.081 412.647 21.8892C412.594 21.7036 412.589 21.576 412.589 21.5361H422.589ZM421.212 16.8827C420.397 15.6601 419.334 14.7081 418.137 14.0038L413.066 22.6231C413.083 22.6331 413.064 22.6235 413.024 22.5865C412.983 22.5485 412.935 22.4953 412.892 22.4298L421.212 16.8827ZM418.229 14.0595C417.16 13.3991 416.009 12.9269 414.822 12.6034L412.191 22.2511C412.581 22.3573 412.826 22.4759 412.974 22.5675L418.229 14.0595ZM414.924 12.6322C413.895 12.3284 412.839 12.1001 411.758 11.9425L410.315 21.8378C410.952 21.9308 411.543 22.0606 412.09 22.2223L414.924 12.6322ZM411.758 11.9425C410.72 11.7911 409.668 11.695 408.604 11.6524L408.204 21.6444C408.931 21.6735 409.634 21.7385 410.315 21.8378L411.758 11.9425ZM408.608 11.6526C407.672 11.6144 406.78 11.5947 405.934 11.5947V21.5947C406.627 21.5947 407.382 21.6109 408.2 21.6443L408.608 11.6526ZM405.934 11.5947C405.018 11.5947 404.06 11.6252 403.062 11.6839L403.649 21.6667C404.477 21.618 405.238 21.5947 405.934 21.5947V11.5947ZM403.16 11.6791C402.083 11.7213 401.009 11.8163 399.936 11.9634L401.296 21.8705C402.05 21.7671 402.802 21.7009 403.551 21.6715L403.16 11.6791ZM399.923 11.9653C398.819 12.1198 397.737 12.3422 396.678 12.635L399.344 22.2732C399.968 22.1005 400.623 21.9649 401.309 21.8687L399.923 11.9653ZM396.749 12.616C395.545 12.93 394.378 13.3864 393.29 14.0214L398.328 22.6592C398.529 22.5424 398.83 22.4079 399.273 22.2922L396.749 12.616ZM393.29 14.0214C392.124 14.7013 391.065 15.6002 390.219 16.7531L398.283 22.6668C398.272 22.6829 398.261 22.6958 398.252 22.7054C398.248 22.71 398.244 22.7136 398.242 22.716C398.239 22.7184 398.238 22.7196 398.238 22.7196C398.238 22.7195 398.24 22.7182 398.243 22.7156C398.246 22.713 398.251 22.7091 398.258 22.704C398.273 22.6938 398.295 22.6785 398.328 22.6592L393.29 14.0214ZM390.202 16.7774C389.121 18.2698 388.688 19.9613 388.688 21.5898H398.688C398.688 21.6509 398.679 21.8004 398.618 22.0061C398.554 22.2181 398.448 22.4391 398.301 22.6425L390.202 16.7774ZM394.937 16.7485L388.277 15.0297L385.778 24.7125L392.438 26.4312L394.937 16.7485ZM392.027 19.8711C392.027 19.6833 392.05 19.5887 392.058 19.5608C392.062 19.5458 392.065 19.5412 392.064 19.5434C392.063 19.5441 392.063 19.5453 392.062 19.5467C392.061 19.5481 392.061 19.5489 392.061 19.5489L383.766 13.9629C382.547 15.773 382.027 17.8144 382.027 19.8711H392.027ZM392.087 19.5101C392.27 19.2323 392.538 18.9486 392.969 18.6689L387.531 10.2774C386.028 11.2509 384.739 12.4891 383.741 14.0016L392.087 19.5101ZM392.934 18.6915C393.496 18.3341 394.209 17.9987 395.114 17.7184L392.154 8.16641C390.516 8.67379 388.973 9.35898 387.566 10.2548L392.934 18.6915ZM395.175 17.699C396.19 17.3702 397.251 17.1166 398.361 16.9413L396.802 7.06363C395.191 7.31796 393.62 7.69099 392.093 8.18574L395.175 17.699ZM398.414 16.9327C399.63 16.7274 400.831 16.5864 402.019 16.5083L401.362 6.52983C399.828 6.63074 398.29 6.81199 396.749 7.07221L398.414 16.9327ZM402.019 16.5083C403.286 16.4249 404.447 16.3848 405.504 16.3848V6.38477C404.198 6.38477 402.816 6.43419 401.362 6.52983L402.019 16.5083ZM444.38 42V47H449.38V42H444.38ZM437.559 42H432.559V47H437.559V42ZM437.559 11.3848V6.38477H432.559V11.3848H437.559ZM444.38 11.3848H449.38V6.38477H444.38V11.3848ZM444.138 1.42139L441.625 5.74392L441.663 5.76598L441.701 5.78737L444.138 1.42139ZM437.908 6.68506L435.714 11.1779L435.734 11.1878L435.754 11.1975L437.908 6.68506ZM437.908 1.42139L440.345 5.78737L440.361 5.77809L440.378 5.76867L437.908 1.42139ZM444.38 37H437.559V47H444.38V37ZM442.559 42V11.3848H432.559V42H442.559ZM437.559 16.3848H444.38V6.38477H437.559V16.3848ZM439.38 11.3848V42H449.38V11.3848H439.38ZM440.996 5.75C441.386 5.75 441.62 5.7838 441.73 5.80747C441.839 5.83068 441.778 5.83296 441.625 5.74392L446.651 -2.90115C444.834 -3.95769 442.804 -4.25 440.996 -4.25V5.75ZM441.701 5.78737C441.374 5.60487 440.95 5.25478 440.639 4.69846C440.339 4.16102 440.293 3.69634 440.293 3.48926H450.293C450.293 0.897793 449.07 -1.55192 446.575 -2.9446L441.701 5.78737ZM440.293 3.48926V4.83203H450.293V3.48926H440.293ZM440.293 4.83203C440.293 4.49806 440.375 3.91369 440.761 3.29535C441.147 2.6761 441.637 2.34191 441.944 2.19222L446.332 11.1779C447.409 10.6522 448.477 9.82121 449.248 8.58428C450.018 7.34827 450.293 6.02538 450.293 4.83203H440.293ZM441.944 2.19222C442.06 2.13551 442.066 2.15545 441.892 2.18668C441.72 2.21748 441.431 2.24902 440.996 2.24902V12.249C442.706 12.249 444.607 12.0204 446.332 11.1779L441.944 2.19222ZM440.996 2.24902C440.6 2.24902 440.332 2.21921 440.169 2.18937C440.005 2.15953 439.987 2.13705 440.061 2.17265L435.754 11.1975C437.45 12.0067 439.294 12.249 440.996 12.249V2.24902ZM440.102 2.19222C440.408 2.34191 440.899 2.6761 441.285 3.29535C441.67 3.91369 441.753 4.49806 441.753 4.83203H431.753C431.753 6.02538 432.028 7.34827 432.798 8.58428C433.569 9.82121 434.637 10.6522 435.714 11.1779L440.102 2.19222ZM441.753 4.83203V3.48926H431.753V4.83203H441.753ZM441.753 3.48926C441.753 3.69634 441.707 4.16102 441.407 4.69846C441.096 5.25478 440.672 5.60487 440.345 5.78737L435.471 -2.9446C432.976 -1.55192 431.753 0.897793 431.753 3.48926H441.753ZM440.378 5.76867C440.268 5.83131 440.233 5.82533 440.333 5.80373C440.436 5.78135 440.647 5.75 440.996 5.75V-4.25C439.19 -4.25 437.222 -3.93946 435.438 -2.9259L440.378 5.76867ZM465.8 42V47H470.8V42H465.8ZM459.677 42H454.677V47H459.677V42ZM459.677 1.66309V-3.33691H454.677V1.66309H459.677ZM465.8 1.66309H470.8V-3.33691H465.8V1.66309ZM465.8 37H459.677V47H465.8V37ZM464.677 42V1.66309H454.677V42H464.677ZM459.677 6.66309H465.8V-3.33691H459.677V6.66309ZM460.8 1.66309V42H470.8V1.66309H460.8Z" fill="#09194F"/>
</svg>
